<svg width="34" height="34" viewBox="0 0 34 34" fill="none" xmlns="http://www.w3.org/2000/svg">
<path d="M17 34C26.3888 34 34 26.3888 34 17C34 7.61116 26.3888 0 17 0C7.61116 0 0 7.61116 0 17C0 26.3888 7.61116 34 17 34Z" fill="#FACDBF"/>
<path d="M16.5204 27.4802C11.0851 27.4802 5.52588 26.071 5.52588 19.8847C5.52588 18.9401 5.84333 16.3153 6.7647 14.3255C5.85881 10.3535 6.7647 7.58167 6.7647 7.58167C6.7647 7.58167 10.5508 7.82943 13.1291 11.6311C13.1291 11.6311 14.5615 10.7019 16.5204 10.7639H16.7604C18.7193 10.7019 20.1517 11.6311 20.1517 11.6311C22.73 7.82943 26.5161 7.58167 26.5161 7.58167C26.5161 7.58167 27.422 10.3535 26.5161 14.3255C27.4375 16.3153 27.7549 18.9401 27.7549 19.8847C27.7549 26.071 22.1957 27.4802 16.7604 27.4802H16.5204Z" fill="#5B6270"/>
<path d="M16.5207 27.0157C14.7012 27.0157 12.8662 26.8763 11.1087 26.3653C9.58336 25.9162 8.05806 25.1342 7.11346 23.8102C6.12241 22.4088 5.87464 20.6667 6.04498 18.9866C6.15338 17.9413 6.36243 16.9038 6.66439 15.905C6.74956 15.6263 6.84247 15.3475 6.95087 15.0765C7.05152 14.821 7.23734 14.5423 7.22186 14.2636C7.19863 13.9306 7.08249 13.5822 7.02829 13.2493C6.97409 12.9241 6.93538 12.5989 6.90441 12.2737C6.76504 10.7949 6.7573 9.1457 7.22186 7.71331C7.07475 7.82945 6.9199 7.93785 6.77279 8.05399C6.82698 8.05399 6.88118 8.06173 6.94312 8.06947C6.78827 8.05399 6.98958 8.07721 7.03604 8.08496C7.1212 8.10044 7.19863 8.11593 7.2838 8.13141C7.80255 8.23981 8.30582 8.39466 8.79361 8.60371C10.4041 9.27732 11.759 10.4387 12.7423 11.8711C12.8817 12.0724 13.1527 12.1808 13.3772 12.0414C14.3451 11.422 15.5297 11.2362 16.6524 11.2362C17.775 11.2362 18.9597 11.422 19.9275 12.0414C20.152 12.1808 20.423 12.0724 20.5624 11.8711C21.5457 10.4387 22.9007 9.27732 24.5111 8.60371C24.9989 8.4024 25.5022 8.23981 26.0209 8.13141C26.1061 8.11593 26.1835 8.10044 26.2687 8.08496C26.3152 8.07721 26.5242 8.04624 26.3616 8.06947C26.4158 8.06173 26.47 8.05399 26.5319 8.05399C26.3848 7.93785 26.23 7.82945 26.0829 7.71331C26.4623 8.89019 26.5087 10.2219 26.4545 11.4453C26.4235 12.0956 26.3616 12.7538 26.2455 13.3964C26.1913 13.6984 26.0364 14.0932 26.0751 14.3952C26.1138 14.6817 26.3152 14.9836 26.4081 15.2546C26.7952 16.3076 27.043 17.4226 27.1901 18.5297C27.4223 20.2331 27.2985 22.0294 26.3616 23.5237C25.4867 24.9174 24.0233 25.7768 22.4903 26.2724C20.5546 26.884 18.5261 27.0157 16.5207 27.0157C15.9246 27.0157 15.9246 27.9448 16.5207 27.9448C19.2616 27.9448 22.2038 27.7202 24.6427 26.342C25.7654 25.7072 26.741 24.7935 27.3527 23.6554C28.0263 22.4011 28.2895 20.93 28.2044 19.5131C28.1037 17.6703 27.6779 15.7811 26.9113 14.0932C26.9268 14.2094 26.9423 14.3332 26.9578 14.4494C27.3217 12.8157 27.4688 11.1278 27.314 9.46314C27.252 8.79728 27.1668 8.10044 26.9578 7.45781C26.8958 7.27198 26.7178 7.10165 26.5087 7.11713C25.6648 7.17133 24.8286 7.45006 24.0621 7.783C22.2967 8.54177 20.8334 9.8193 19.7417 11.3988C19.9507 11.3446 20.1675 11.2904 20.3766 11.2285C19.2771 10.5239 17.9144 10.2993 16.6291 10.2993C15.3439 10.2993 13.9889 10.5239 12.8817 11.2285C13.0908 11.2827 13.3076 11.3369 13.5166 11.3988C12.4326 9.8193 10.9693 8.53403 9.19623 7.783C8.44519 7.45006 7.60125 7.17133 6.76504 7.11713C6.55599 7.10165 6.37791 7.27198 6.31597 7.45781C6.10692 8.10044 6.02175 8.79728 5.95981 9.46314C5.80496 11.1278 5.95207 12.8157 6.31597 14.4494C6.33146 14.3332 6.34694 14.2094 6.36243 14.0932C5.65785 15.6418 5.27846 17.3374 5.10812 19.033C4.9765 20.3725 5.10812 21.7662 5.62688 23.0205C6.67213 25.5446 9.1188 26.8995 11.6739 27.4725C13.2611 27.8286 14.8948 27.9448 16.513 27.9448C17.1169 27.9448 17.1169 27.0157 16.5207 27.0157Z" fill="#231F20"/>
<path d="M8.89385 24.9019C9.60796 24.9019 10.1869 24.323 10.1869 23.6089C10.1869 22.8948 9.60796 22.3159 8.89385 22.3159C8.17973 22.3159 7.60083 22.8948 7.60083 23.6089C7.60083 24.323 8.17973 24.9019 8.89385 24.9019Z" fill="#FACDBF"/>
<path d="M24.271 24.9019C24.9852 24.9019 25.5641 24.323 25.5641 23.6089C25.5641 22.8948 24.9852 22.3159 24.271 22.3159C23.5569 22.3159 22.978 22.8948 22.978 23.6089C22.978 24.323 23.5569 24.9019 24.271 24.9019Z" fill="#FACDBF"/>
<path d="M6.64098 7.71338C6.64098 7.71338 10.3032 10.4078 11.1394 11.8789C10.3961 11.8247 7.41524 13.4197 7.02037 14.6198C7.02037 14.6198 5.43313 11.0814 6.64098 7.71338Z" fill="#FACDBF"/>
<path d="M26.5549 7.71338C26.5549 7.71338 22.8926 10.4078 22.0564 11.8789C22.7997 11.8247 25.7806 13.4197 26.1755 14.6198C26.1755 14.6198 27.7627 11.0814 26.5549 7.71338Z" fill="#FACDBF"/>
<path d="M13.3772 18.5607C14.3063 20.9455 14.1437 21.5804 11.4338 22.3159C9.80788 22.7572 7.80254 21.5726 7.42316 19.9312C7.04377 18.2898 8.07354 16.6483 9.71497 16.2689C11.3564 15.8973 12.7656 16.989 13.3772 18.5607Z" fill="white"/>
<path d="M11.2013 22.1069C12.4756 22.1069 13.5086 21.0739 13.5086 19.7996C13.5086 18.5254 12.4756 17.4923 11.2013 17.4923C9.92706 17.4923 8.89404 18.5254 8.89404 19.7996C8.89404 21.0739 9.92706 22.1069 11.2013 22.1069Z" fill="#231F20" stroke="#231F20" stroke-width="0.25" stroke-miterlimit="10"/>
<path d="M9.91619 18.7466C10.0701 18.7466 10.1949 18.6218 10.1949 18.4678C10.1949 18.3139 10.0701 18.1891 9.91619 18.1891C9.76224 18.1891 9.63745 18.3139 9.63745 18.4678C9.63745 18.6218 9.76224 18.7466 9.91619 18.7466Z" fill="white" stroke="#231F20" stroke-width="0.25" stroke-miterlimit="10"/>
<path d="M19.7879 18.5607C18.8588 20.9455 19.0214 21.5804 21.7313 22.3159C23.3573 22.7572 25.3626 21.5726 25.742 19.9312C26.1214 18.2898 25.0916 16.6483 23.4502 16.2689C21.801 15.8973 20.3996 16.989 19.7879 18.5607Z" fill="white"/>
<path d="M21.9638 22.1069C23.2381 22.1069 24.2711 21.0739 24.2711 19.7996C24.2711 18.5254 23.2381 17.4923 21.9638 17.4923C20.6895 17.4923 19.6565 18.5254 19.6565 19.7996C19.6565 21.0739 20.6895 22.1069 21.9638 22.1069Z" fill="#231F20" stroke="#231F20" stroke-width="0.25" stroke-miterlimit="10"/>
<path d="M20.748 18.7466C20.9019 18.7466 21.0267 18.6218 21.0267 18.4678C21.0267 18.3139 20.9019 18.1891 20.748 18.1891C20.594 18.1891 20.4692 18.3139 20.4692 18.4678C20.4692 18.6218 20.594 18.7466 20.748 18.7466Z" fill="white" stroke="#231F20" stroke-width="0.25" stroke-miterlimit="10"/>
<path d="M14.0275 23.3921C14.0507 24.1586 14.7321 24.5071 15.4366 24.4064C16.1954 24.298 16.8303 23.7328 16.8535 22.9431C16.6987 22.9431 16.5438 22.9431 16.389 22.9431C16.4122 23.7328 17.0394 24.2903 17.8059 24.3909C18.5027 24.4838 19.1918 24.1354 19.2228 23.3766C19.2305 23.0747 18.766 23.0747 18.7582 23.3766C18.7427 23.8799 18.224 24.0038 17.8059 23.9264C17.3026 23.8335 16.8768 23.4773 16.8613 22.9431C16.8535 22.6411 16.4045 22.6411 16.3967 22.9431C16.3812 23.4773 15.9476 23.8335 15.4521 23.9341C15.0263 24.0193 14.5153 23.8954 14.4998 23.3844C14.4765 23.0902 14.012 23.0902 14.0275 23.3921Z" fill="#231F20"/>
<path d="M16.7064 27.8286C19.4395 27.8209 22.4281 27.5499 24.8129 26.0943C25.8891 25.4362 26.8105 24.5148 27.3834 23.3766C28.0028 22.1378 28.2429 20.6977 28.1499 19.3195C28.0338 17.5 27.6234 15.6417 26.8647 13.9771C26.8801 14.0932 26.8956 14.2171 26.9111 14.3332C27.275 12.6995 27.4221 11.0117 27.2673 9.34699C27.2053 8.68113 27.1202 7.98429 26.9111 7.34166C26.8492 7.15583 26.6711 6.9855 26.462 7.00098C25.6181 7.05518 24.7819 7.33391 24.0154 7.66685C22.2501 8.42562 20.7867 9.70315 19.695 11.2826C19.9041 11.2284 20.1208 11.1743 20.3299 11.1123C19.2304 10.4077 17.8677 10.1832 16.5825 10.1832C15.2972 10.1832 13.9422 10.4077 12.835 11.1123C13.0441 11.1665 13.2609 11.2207 13.4699 11.2826C12.386 9.70315 10.9226 8.41788 9.14956 7.66685C8.38304 7.33391 7.53909 7.06292 6.70289 7.00098C6.49384 6.9855 6.31576 7.15583 6.25382 7.34166C6.04477 7.98429 5.9596 8.68113 5.89766 9.34699C5.74281 11.0117 5.88992 12.6995 6.25382 14.3332C6.2693 14.2171 6.28479 14.0932 6.30028 13.9771C5.58021 15.5566 5.20082 17.2832 5.03823 19.002C4.91435 20.388 5.08468 21.8126 5.6499 23.0979C6.76483 25.6452 9.39732 26.9227 11.9911 27.4337C13.5474 27.7435 15.1269 27.8286 16.7064 27.8286C17.3025 27.8286 17.3025 26.8995 16.7064 26.8995C13.4854 26.8995 9.36635 26.6208 7.19842 23.8644C6.1222 22.5172 5.82023 20.7209 5.96734 19.0408C6.06025 18.0032 6.26156 16.9657 6.54804 15.9669C6.63321 15.6882 6.71838 15.4095 6.81903 15.1307C6.91194 14.8675 7.08228 14.5965 7.14422 14.3332C7.2139 14.0313 7.04357 13.6441 6.99711 13.3499C6.93517 13.0015 6.88097 12.6453 6.84226 12.2892C6.68741 10.7716 6.66418 9.06826 7.14422 7.59716C6.99711 7.7133 6.84226 7.8217 6.69515 7.93784C6.74935 7.93784 6.80355 7.94558 6.86549 7.95332C6.71063 7.93784 6.91194 7.96107 6.9584 7.96881C7.04357 7.98429 7.12099 7.99978 7.20616 8.01526C7.72492 8.12366 8.22819 8.27851 8.71597 8.48756C10.3264 9.16117 11.6814 10.3226 12.6647 11.7549C12.8041 11.9563 13.0751 12.0647 13.2996 11.9253C14.2674 11.3059 15.452 11.1201 16.5747 11.1201C17.6974 11.1201 18.882 11.3059 19.8499 11.9253C20.0744 12.0647 20.3454 11.9563 20.4847 11.7549C21.4681 10.3226 22.823 9.16117 24.4335 8.48756C24.9213 8.28625 25.4245 8.12366 25.9433 8.01526C26.0285 7.99978 26.1059 7.98429 26.1911 7.96881C26.2375 7.96107 26.4466 7.93009 26.284 7.95332C26.3382 7.94558 26.3924 7.93784 26.4543 7.93784C26.3072 7.8217 26.1523 7.7133 26.0052 7.59716C26.3769 8.74307 26.4233 10.0206 26.3846 11.213C26.3614 11.8324 26.3072 12.4518 26.2065 13.0712C26.1523 13.4119 26.0517 13.7525 26.0052 14.101C25.9665 14.3952 26.1446 14.6507 26.2453 14.9139C26.6634 15.9747 26.9189 17.1051 27.0892 18.2278C27.337 19.9002 27.275 21.681 26.4233 23.1908C25.6336 24.5922 24.2554 25.5136 22.7611 26.0478C20.8254 26.7369 18.7349 26.9073 16.6909 26.915C16.1024 26.8995 16.1024 27.8286 16.7064 27.8286Z" fill="#231F20"/>
</svg>
