<svg width="206" height="200" viewBox="0 0 206 200" fill="none" xmlns="http://www.w3.org/2000/svg">
<path d="M205.734 93.5C202 67 193.157 46.8143 174 28.5133C154.842 10.2123 129.368 0 102.874 0C76.3798 0 50.9054 10.2123 31.7479 28.5133C12.5904 46.8143 2.21094 67.0336 0.999986 93.5C0.74824 99 0.999888 101 5.88592 101.613V150.622C3.87194 160.916 5.84468 171.59 11.4047 180.484C16.9648 189.377 25.6966 195.826 35.8324 198.524C36.0268 198.542 36.2223 198.542 36.4166 198.524C39.7506 199.389 43.1799 199.833 46.6243 199.846C47.4397 199.846 48.2217 199.522 48.7983 198.946C49.3749 198.369 49.6989 197.587 49.6989 196.772V120.061C49.6989 119.245 49.3749 118.463 48.7983 117.887C48.2217 117.31 47.4397 116.986 46.6243 116.986C43.1799 116.999 39.7506 117.443 36.4166 118.308C36.2223 118.29 36.0268 118.29 35.8324 118.308C32.9024 119.131 30.0759 120.287 27.4081 121.752V101.613C29.5001 101.613 33.0001 100 33.5001 96C34.6694 78.4897 42.5379 65.1701 55.3539 53.1814C68.1698 41.1927 85.0632 34.5229 102.613 34.5229C120.162 34.5229 137.055 41.1927 149.871 53.1814C162.687 65.1701 170.331 78.9897 171.5 96.5C171.763 100.442 174.949 101.613 178.063 101.613V121.752C175.388 120.34 172.562 119.236 169.639 118.462C169.444 118.444 169.249 118.444 169.055 118.462C165.727 117.545 162.298 117.049 158.847 116.986C158.031 116.986 157.249 117.31 156.673 117.887C156.096 118.463 155.772 119.245 155.772 120.061V196.925C155.772 197.741 156.096 198.523 156.673 199.099C157.249 199.676 158.031 200 158.847 200C162.291 199.987 165.72 199.543 169.055 198.678C169.249 198.696 169.444 198.696 169.639 198.678C179.806 195.979 188.563 189.507 194.127 180.579C199.69 171.651 201.642 160.939 199.585 150.622V101.613C199.585 101.613 200.34 101.613 201.5 101.613C204.84 101.613 206.5 99 205.734 93.5ZM11.2665 158.493C11.2734 151.333 13.4518 144.344 17.5139 138.449C21.5761 132.553 27.3309 128.028 34.0184 125.472V191.514C27.3309 188.958 21.5761 184.433 17.5139 178.537C13.4518 172.642 11.2734 165.653 11.2665 158.493ZM43.5497 193.851C42.4121 193.851 41.2745 193.574 40.1676 193.39V123.719C41.2745 123.535 42.4121 123.381 43.5497 123.258V193.851ZM21.2589 125.718C17.6723 128.489 14.5574 131.822 12.0351 135.587V101.613H21.2589V125.718ZM102.736 27.8229C84.0952 27.845 66.1235 34.7694 52.2872 47.2601C38.4508 59.7508 29.7303 76.923 27.8078 95.4639H6.28562C8.22411 71.1979 19.2325 48.5526 37.1181 32.0388C55.0037 15.525 78.4537 6.3548 102.797 6.3548C127.14 6.3548 150.59 15.525 168.476 32.0388C186.362 48.5526 197.37 71.1979 199.309 95.4639H177.786C175.862 76.9019 167.124 59.7126 153.261 47.2189C139.399 34.7253 121.397 27.8146 102.736 27.8229ZM161.921 123.135C163.059 123.135 164.197 123.412 165.304 123.596V193.267C164.197 193.451 163.059 193.605 161.921 193.728V123.135ZM171.453 191.391V125.472C178.149 128.018 183.913 132.539 187.98 138.437C192.048 144.334 194.226 151.329 194.226 158.493C194.226 165.657 192.048 172.652 187.98 178.549C183.913 184.447 178.149 188.968 171.453 191.514V191.391ZM193.436 135.587C190.914 131.822 187.799 128.489 184.212 125.718V101.613H193.436V135.587Z" fill="#5B6270"/>
</svg>
