<svg width="120" height="108" viewBox="0 0 120 108" fill="none" xmlns="http://www.w3.org/2000/svg">
<g clip-path="url(#clip0_830_2276)">
<path d="M59.5198 105.603C31.421 105.603 2.68188 98.3343 2.68188 66.4215C2.68188 61.5488 4.32298 48.0088 9.08615 37.744C4.40303 17.2544 9.08615 2.95557 9.08615 2.95557C9.08615 2.95557 28.6592 4.23367 41.9881 23.8446C41.9881 23.8446 49.393 19.0517 59.5198 19.3712H60.7606C70.8874 19.0517 78.2923 23.8446 78.2923 23.8446C91.6212 4.23367 111.194 2.95557 111.194 2.95557C111.194 2.95557 115.877 17.2544 111.194 37.744C115.957 48.0088 117.598 61.5488 117.598 66.4215C117.598 98.3343 88.8593 105.603 60.7606 105.603H59.5198Z" fill="#5B6270"/>
<path d="M59.5197 103.207C50.1134 103.207 40.6271 102.488 31.541 99.8522C23.6558 97.5356 15.7705 93.5016 10.8873 86.6717C5.76384 79.4424 4.48299 70.4557 5.36357 61.7885C5.92395 56.3965 7.00467 51.0445 8.56571 45.8921C9.006 44.4542 9.48632 43.0164 10.0467 41.6184C10.567 40.3004 11.5277 38.8625 11.4476 37.4246C11.3275 35.7072 10.7271 33.9098 10.447 32.1924C10.1668 30.5149 9.96664 28.8374 9.80653 27.1598C9.08605 19.5312 9.04603 11.0238 11.4476 3.6347C10.6871 4.23381 9.88659 4.79298 9.12608 5.3921C9.40627 5.3921 9.68645 5.43204 10.0067 5.47198C9.20613 5.3921 10.2468 5.51192 10.487 5.55186C10.9273 5.63174 11.3275 5.71162 11.7678 5.79151C14.4496 6.35068 17.0514 7.14949 19.573 8.2279C27.8986 11.7027 34.9033 17.6939 39.9867 25.0829C40.7071 26.1214 42.1081 26.6806 43.2688 25.9616C48.2722 22.7664 54.3963 21.8078 60.2001 21.8078C66.004 21.8078 72.1281 22.7664 77.1314 25.9616C78.2922 26.6806 79.6931 26.1214 80.4136 25.0829C85.497 17.6939 92.5017 11.7027 100.827 8.2279C103.349 7.18943 105.951 6.35068 108.632 5.79151C109.073 5.71162 109.473 5.63174 109.913 5.55186C110.153 5.51192 111.234 5.35216 110.394 5.47198C110.674 5.43204 110.954 5.3921 111.274 5.3921C110.514 4.79298 109.713 4.23381 108.953 3.6347C110.914 9.70571 111.154 16.5755 110.874 22.8862C110.714 26.2412 110.394 29.6362 109.793 32.9513C109.513 34.509 108.712 36.5459 108.913 38.1036C109.113 39.5814 110.153 41.1391 110.634 42.5371C112.635 47.969 113.916 53.7205 114.676 59.432C115.877 68.219 115.237 77.4853 110.394 85.1939C105.871 92.3832 98.3055 96.8167 90.3803 99.3729C80.4136 102.568 69.8866 103.207 59.5197 103.207C56.4376 103.207 56.4376 108 59.5197 108C73.6891 108 88.8993 106.842 101.508 99.7323C107.312 96.4572 112.355 91.7442 115.517 85.8729C118.999 79.4025 120.36 71.8137 119.92 64.5045C119.4 54.9986 117.198 45.253 113.235 36.5459C113.316 37.1451 113.396 37.7841 113.476 38.3832C115.357 29.9557 116.117 21.2486 115.317 12.6613C114.997 9.22642 114.556 5.63174 113.476 2.31665C113.155 1.35807 112.235 0.479376 111.154 0.559257C106.791 0.838843 102.468 2.27671 98.5057 3.99417C89.3796 7.90837 81.8145 14.4986 76.1708 22.6465C77.2515 22.3669 78.3722 22.0874 79.453 21.7678C73.7692 18.1332 66.7245 16.9749 60.0801 16.9749C53.4356 16.9749 46.431 18.1332 40.7071 21.7678C41.7879 22.0474 42.9086 22.327 43.9893 22.6465C38.3856 14.4986 30.8205 7.86843 21.6544 3.99417C17.6918 2.27671 13.3289 0.878784 9.006 0.559257C7.92528 0.479376 7.00467 1.35807 6.68445 2.31665C5.60373 5.63174 5.16344 9.22642 4.84323 12.6613C4.04269 21.2486 4.8032 29.9557 6.68445 38.3832C6.76451 37.7841 6.84456 37.1451 6.92461 36.5459C3.28218 44.5341 1.32088 53.2812 0.440291 62.0282C-0.240163 68.938 0.440291 76.1273 3.12208 82.5977C8.52568 95.6184 21.1741 102.608 34.3829 105.564C42.5884 107.401 51.034 108 59.3996 108C62.6017 108.04 62.6017 103.247 59.5197 103.207Z" fill="#231F20"/>
<path d="M20.0934 92.3432C23.7851 92.3432 26.7778 89.3569 26.7778 85.673C26.7778 81.9892 23.7851 79.0029 20.0934 79.0029C16.4017 79.0029 13.4089 81.9892 13.4089 85.673C13.4089 89.3569 16.4017 92.3432 20.0934 92.3432Z" fill="#FACDBF"/>
<path d="M99.6266 92.3432C103.318 92.3432 106.311 89.3569 106.311 85.673C106.311 81.9892 103.318 79.0029 99.6266 79.0029C95.9349 79.0029 92.9421 81.9892 92.9421 85.673C92.9421 89.3569 95.9349 92.3432 99.6266 92.3432Z" fill="#FACDBF"/>
<path d="M8.48584 3.63428C8.48584 3.63428 27.4185 17.5337 31.7413 25.1224C27.8588 24.8429 12.4485 33.1106 10.4071 39.3014C10.4071 39.3014 2.24168 21.0485 8.48584 3.63428Z" fill="#FACDBF"/>
<path d="M111.394 3.63428C111.394 3.63428 92.4618 17.5337 88.1389 25.1224C91.9815 24.8429 107.392 33.0707 109.433 39.2615C109.433 39.3014 117.639 21.0485 111.394 3.63428Z" fill="#FACDBF"/>
<path d="M43.269 59.6317C48.0722 71.9335 47.2317 75.2086 33.2223 79.003C24.8167 81.2796 14.4498 75.1687 12.4885 66.7012C10.5272 58.2338 15.8507 49.7663 24.3364 47.8092C32.8621 45.8521 40.1069 51.5237 43.269 59.6317Z" fill="white"/>
<path d="M32.0215 77.9249C38.6091 77.9249 43.9494 72.596 43.9494 66.0225C43.9494 59.449 38.6091 54.1201 32.0215 54.1201C25.4338 54.1201 20.0935 59.449 20.0935 66.0225C20.0935 72.596 25.4338 77.9249 32.0215 77.9249Z" fill="#231F20" stroke="#231F20" stroke-width="0.25" stroke-miterlimit="10"/>
<path d="M25.377 60.5906C26.1728 60.5906 26.818 59.9468 26.818 59.1527C26.818 58.3586 26.1728 57.7148 25.377 57.7148C24.5812 57.7148 23.936 58.3586 23.936 59.1527C23.936 59.9468 24.5812 60.5906 25.377 60.5906Z" fill="white" stroke="#231F20" stroke-width="0.25" stroke-miterlimit="10"/>
<path d="M76.411 59.6317C71.6078 71.9335 72.4484 75.2086 86.4577 79.003C94.8633 81.2796 105.23 75.1687 107.191 66.7012C109.153 58.2338 103.829 49.7663 95.3436 47.8092C86.858 45.8521 79.5731 51.5237 76.411 59.6317Z" fill="white"/>
<path d="M87.6584 77.9249C94.2461 77.9249 99.5864 72.596 99.5864 66.0225C99.5864 59.449 94.2461 54.1201 87.6584 54.1201C81.0708 54.1201 75.7305 59.449 75.7305 66.0225C75.7305 72.596 81.0708 77.9249 87.6584 77.9249Z" fill="#231F20" stroke="#231F20" stroke-width="0.25" stroke-miterlimit="10"/>
<path d="M81.3743 60.5906C82.1701 60.5906 82.8153 59.9468 82.8153 59.1527C82.8153 58.3586 82.1701 57.7148 81.3743 57.7148C80.5785 57.7148 79.9333 58.3586 79.9333 59.1527C79.9333 59.9468 80.5785 60.5906 81.3743 60.5906Z" fill="white" stroke="#231F20" stroke-width="0.25" stroke-miterlimit="10"/>
<path d="M46.6311 84.5547C46.7512 88.5088 50.2735 90.3062 53.916 89.7869C57.8386 89.2278 61.1208 86.3121 61.2409 82.2381C60.4403 82.2381 59.6398 82.2381 58.8392 82.2381C58.9593 86.3121 62.2015 89.1878 66.1641 89.707C69.7665 90.1863 73.3289 88.389 73.489 84.4748C73.529 82.9171 71.1274 82.9171 71.0874 84.4748C71.0074 87.0709 68.3256 87.71 66.1641 87.3106C63.5624 86.8313 61.3609 84.994 61.2809 82.2381C61.2409 80.6804 58.9193 80.6804 58.8793 82.2381C58.7992 84.994 56.5577 86.8313 53.996 87.3505C51.7945 87.7899 49.1528 87.1508 49.0727 84.5147C48.9927 82.997 46.5911 82.997 46.6311 84.5547Z" fill="#231F20"/>
<path d="M60.4805 107.441C74.6099 107.401 90.0602 106.003 102.388 98.4938C107.952 95.0988 112.715 90.3458 115.677 84.4745C118.879 78.084 120.12 70.655 119.64 63.5455C119.04 54.1595 116.918 44.5737 112.996 35.9864C113.076 36.5855 113.156 37.2245 113.236 37.8237C115.117 29.3961 115.877 20.689 115.077 12.1018C114.757 8.66685 114.316 5.07217 113.236 1.75708C112.915 0.798504 111.995 -0.0801947 110.914 -0.000313033C106.551 0.279273 102.228 1.71714 98.2657 3.4346C89.1396 7.3488 81.5746 13.939 75.9308 22.087C77.0115 21.8074 78.1323 21.5278 79.213 21.2083C73.5292 17.5737 66.4845 16.4154 59.8401 16.4154C53.1956 16.4154 46.191 17.5737 40.4672 21.2083C41.5479 21.4879 42.6686 21.7674 43.7494 22.087C38.1456 13.939 30.5806 7.30886 21.4145 3.4346C17.4918 1.71714 13.1289 0.319214 8.80605 -0.000313033C7.72533 -0.0801947 6.80472 0.798504 6.4845 1.75708C5.40378 5.07217 4.96349 8.66685 4.64328 12.1018C3.84274 20.689 4.60325 29.3961 6.4845 37.8237C6.56456 37.2245 6.64461 36.5855 6.72466 35.9864C3.00218 44.0944 1.04088 53.0012 0.200315 61.908C-0.440112 69.0574 0.440475 76.4065 3.36242 83.0367C9.12627 96.1772 22.7353 102.767 36.1443 105.404C44.1496 107.001 52.3151 107.441 60.4805 107.441C63.5626 107.441 63.5626 102.648 60.4805 102.648C43.8294 102.648 22.5352 101.21 11.3277 86.9908C5.80405 80.0012 4.24301 70.7748 5.00352 62.1077C5.48384 56.7556 6.52453 51.4035 8.00552 46.2512C8.44581 44.8133 8.88611 43.3754 9.40645 41.9376C9.88677 40.5796 10.7674 39.1816 11.0876 37.8237C11.4478 36.266 10.5672 34.2689 10.3271 32.7512C10.0069 30.9538 9.72667 29.1166 9.52653 27.2793C8.726 19.4509 8.60592 10.6639 11.0876 3.07513C10.3271 3.67424 9.52653 4.23341 8.76603 4.83253C9.04621 4.83253 9.3264 4.87247 9.64661 4.91241C8.84608 4.83253 9.88677 4.95235 10.1269 4.99229C10.5672 5.07217 10.9675 5.15205 11.4078 5.23194C14.0896 5.79111 16.6913 6.58992 19.213 7.66833C27.5385 11.1432 34.5432 17.1343 39.6266 24.5234C40.3471 25.5618 41.748 26.121 42.9088 25.4021C47.9121 22.2068 54.0362 21.2482 59.8401 21.2482C65.6439 21.2482 71.768 22.2068 76.7714 25.4021C77.9321 26.121 79.3331 25.5618 80.0536 24.5234C85.1369 17.1343 92.1416 11.1432 100.467 7.66833C102.989 6.62987 105.591 5.79111 108.272 5.23194C108.713 5.15205 109.113 5.07217 109.553 4.99229C109.793 4.95235 110.874 4.79259 110.034 4.91241C110.314 4.87247 110.594 4.83253 110.914 4.83253C110.154 4.23341 109.353 3.67424 108.593 3.07513C110.514 8.98637 110.754 15.5766 110.554 21.7275C110.434 24.9228 110.154 28.118 109.633 31.3133C109.353 33.0707 108.833 34.8281 108.593 36.6254C108.392 38.1432 109.313 39.4612 109.833 40.8192C111.995 46.2911 113.316 52.1225 114.196 57.9139C115.477 66.5411 115.157 75.7275 110.754 83.516C106.671 90.7453 99.5465 95.4982 91.8214 98.2541C81.8147 101.809 71.0075 102.688 60.4405 102.728C57.3984 102.648 57.3584 107.441 60.4805 107.441Z" fill="#231F20"/>
</g>
<defs>
<clipPath id="clip0_830_2276">
<rect width="120" height="108" fill="white"/>
</clipPath>
</defs>
</svg>
