<svg width="750" height="551" viewBox="0 0 750 551" fill="none" xmlns="http://www.w3.org/2000/svg">
<path d="M350.837 436.18L362.685 430.879L347.846 381.548L330.358 389.372L350.837 436.18Z" fill="#FFB6B6"/>
<path d="M342.35 422.787L360.074 410.273L364.966 418.157L389.962 419.387C391.196 419.448 392.379 419.901 393.338 420.682C394.296 421.462 394.98 422.528 395.289 423.725C395.599 424.921 395.518 426.185 395.058 427.332C394.598 428.479 393.783 429.449 392.733 430.101L370.82 443.691L362.205 438.235L365.569 446.949L357.307 452.073L342.35 422.787Z" fill="#2F2E41"/>
<path d="M655.19 342.808C655.19 337.847 653.523 333.821 651.478 333.811H93.7069C91.6517 333.821 89.9945 337.847 89.9853 342.808V547.037C89.9854 547.498 89.814 547.942 89.5044 548.283C89.1949 548.624 88.7694 548.838 88.3108 548.882C86.8137 549.026 85.3167 549.16 83.8196 549.284C83.7826 549.284 83.7456 549.293 83.7085 549.293C82.8939 549.367 82.0792 549.422 81.2645 549.487H81.2552C80.8362 548.713 80.422 547.931 80.0126 547.143C79.8742 546.877 79.8018 546.582 79.8018 546.283V331.136C79.8018 329.767 79.8573 328.387 79.9499 327.027C80.082 325.158 80.3138 323.298 80.6442 321.455C82.2088 312.856 85.7452 307.034 89.7631 307.015H655.412C655.998 307.019 656.578 307.142 657.115 307.376C657.905 307.725 658.619 308.225 659.217 308.848C660.029 309.692 660.723 310.641 661.281 311.671C663.263 315.16 664.679 320.362 665.179 326.416C665.179 326.471 665.188 326.527 665.188 326.582C665.318 328.082 665.383 329.609 665.373 331.136L665.503 350.972L665.586 362.802L665.836 399.918L665.929 413.099L666.336 548.423C666.336 548.914 666.141 549.385 665.794 549.732C665.447 550.079 664.976 550.274 664.485 550.274H657.042C656.55 550.274 656.079 550.079 655.732 549.732C655.385 549.385 655.19 548.914 655.19 548.423V342.808Z" fill="#E6E6E6"/>
<path d="M503.626 214.199H443.525C442.675 214.201 441.86 214.539 441.26 215.141C440.659 215.743 440.322 216.559 440.323 217.409V312.333H506.836V217.409C506.836 216.987 506.753 216.57 506.592 216.18C506.431 215.791 506.194 215.437 505.896 215.139C505.598 214.841 505.244 214.604 504.855 214.443C504.465 214.282 504.047 214.199 503.626 214.199ZM473.778 268.134C471.898 268.125 470.098 267.375 468.769 266.046C467.44 264.717 466.69 262.918 466.681 261.038V250.09C466.683 248.209 467.432 246.407 468.762 245.078C470.093 243.749 471.897 243.002 473.778 243.002C475.658 243.002 477.462 243.749 478.793 245.078C480.124 246.407 480.872 248.209 480.874 250.09V261.038C480.866 262.918 480.115 264.717 478.786 266.046C477.457 267.375 475.657 268.125 473.778 268.134Z" fill="#2F2E41"/>
<path d="M440.117 309.297V318.455C440.118 318.93 440.307 319.385 440.642 319.72C440.978 320.056 441.433 320.245 441.907 320.246H505.251C505.725 320.243 506.179 320.054 506.515 319.719C506.85 319.383 507.04 318.929 507.042 318.455V309.297H440.117Z" fill="#3F3D56"/>
<path d="M362.898 82.0081C362.206 83.7491 361.141 85.3173 359.778 86.6023C358.414 87.8872 356.785 88.8576 355.006 89.4451C353.227 90.0325 351.341 90.2229 349.48 90.0026C347.619 89.7823 345.829 89.1568 344.237 88.1701L259.4 147.26L257.058 123.712L340.472 69.6787C342.307 67.1133 345.02 65.3101 348.096 64.6108C351.172 63.9114 354.398 64.3646 357.162 65.8843C359.927 67.404 362.037 69.8848 363.095 72.8565C364.152 75.8282 364.082 79.0844 362.898 82.0081Z" fill="#FFB6B6"/>
<path d="M172.955 119.265C172.955 119.265 163.769 132.836 178.184 144.845C192.599 156.855 251.025 154.466 260.453 154.362C269.882 154.259 313.142 109.516 313.142 109.516L312.859 83.6758L260.628 114.661L172.955 119.265Z" fill="#FFE999"/>
<path d="M167.754 209.365L168.68 226.952C168.68 226.952 165.948 242.53 168.195 245.892C170.425 249.237 231.674 254.213 231.674 254.213C231.674 254.213 229.754 227.985 233.218 209.013L167.754 209.365Z" fill="#FFB6B6"/>
<path d="M355.728 388.426L332.151 409.061L285.943 314.574C240.121 322.453 196.892 324.977 159.501 315.446C146.842 312.263 139.103 299.194 142.217 286.254C142.363 285.649 142.531 285.051 142.722 284.459C147.197 270.808 158.911 261.149 168.14 246.135L235.552 247.159L228.022 273.134L293.508 264.661C306.678 262.957 318.705 272.488 320.372 285.948C320.46 286.659 320.518 287.373 320.545 288.089L355.728 388.426Z" fill="#2F2E41"/>
<path d="M194.076 91.0151C209.194 91.0151 221.449 78.7619 221.449 63.6469C221.449 48.5319 209.194 36.2788 194.076 36.2788C178.958 36.2788 166.703 48.5319 166.703 63.6469C166.703 78.7619 178.958 91.0151 194.076 91.0151Z" fill="#FFB6B6"/>
<path d="M178.029 100.895L203.127 103.847C204.186 103.972 205.179 104.423 205.968 105.139C206.758 105.855 207.305 106.799 207.532 107.84L211.524 126.101L236.405 155.397C236.405 155.397 245.34 172.147 241.99 191.13C239.973 202.561 236.485 213.682 231.612 224.218C231.612 224.218 170.422 249.239 168.188 245.889C165.954 242.539 165.23 227.323 165.23 227.323L157.357 139.758C156.907 135.144 157.483 130.488 159.044 126.123C160.606 121.759 163.114 117.793 166.389 114.512C168.375 112.559 170.335 111.191 171.931 111.191C175.535 111.07 175.072 102.96 178.029 100.895Z" fill="#FFE999"/>
<path d="M231.884 472.869L243.531 478.572L271.57 435.369L254.379 426.95L231.884 472.869Z" fill="#FFB6B6"/>
<path d="M259.785 463.104L235.856 454.021L268.697 355.402C224.081 342.323 190.427 321.257 161.042 296.251C151.074 287.824 143.598 277.003 152.088 266.752C152.485 266.273 152.899 265.81 153.331 265.362C163.356 255.072 188.799 257.052 203.693 247.628L237.004 283.186L234.917 292.711L297.454 313.906C310.03 318.168 316.638 332.018 312.212 344.839C311.978 345.516 311.716 346.182 311.425 346.837L259.785 463.104Z" fill="#2F2E41"/>
<path d="M231.487 465.985L251.506 474.351L247.424 482.683L259.66 504.51C260.264 505.588 260.508 506.83 260.356 508.057C260.204 509.283 259.664 510.429 258.814 511.327C257.965 512.224 256.851 512.827 255.634 513.047C254.418 513.267 253.163 513.092 252.053 512.548L228.896 501.206L228.943 491.009L223.346 498.488L214.615 494.211L231.487 465.985Z" fill="#2F2E41"/>
<path d="M192.339 314.985C190.769 313.963 189.442 312.608 188.453 311.017C187.463 309.427 186.834 307.638 186.611 305.778C186.387 303.918 186.574 302.032 187.158 300.252C187.743 298.472 188.71 296.842 189.993 295.476L148.862 200.634L172.411 203.002L208.867 295.449C211.019 297.755 212.249 300.771 212.326 303.924C212.402 307.077 211.319 310.149 209.282 312.557C207.245 314.965 204.395 316.542 201.272 316.99C198.149 317.438 194.971 316.724 192.339 314.985V314.985Z" fill="#FFB6B6"/>
<path d="M193.425 121.46C193.425 121.46 181.939 109.77 167.311 121.519C152.683 133.268 143.456 190.999 141.69 200.26C139.924 209.521 175.223 260.776 175.223 260.776L200.612 265.615L180.577 208.293L193.425 121.46Z" fill="#FFE999"/>
<path d="M603.147 66.0593H346.24C344.033 66.0628 341.917 66.9411 340.356 68.5015C338.796 70.062 337.917 72.1774 337.914 74.3842V247.715C337.916 249.922 338.794 252.038 340.355 253.599C341.916 255.16 344.032 256.038 346.24 256.04H603.147C605.355 256.038 607.472 255.16 609.033 253.599C610.594 252.038 611.472 249.922 611.474 247.715V74.3843C611.47 72.1774 610.592 70.062 609.031 68.5015C607.47 66.9411 605.355 66.0628 603.147 66.0593Z" fill="#3F3D56"/>
<path d="M601.003 72.0725H348.387C347.205 72.0751 346.072 72.5462 345.237 73.3826C344.403 74.219 343.934 75.3523 343.934 76.5339V245.568C343.936 246.748 344.405 247.88 345.24 248.714C346.075 249.549 347.206 250.018 348.387 250.02H601.003C602.183 250.018 603.315 249.549 604.149 248.714C604.984 247.88 605.454 246.748 605.456 245.568V76.5339C605.456 75.3523 604.987 74.219 604.152 73.3826C603.317 72.5462 602.185 72.0751 601.003 72.0725Z" fill="white"/>
<path d="M551.798 323.432H401.504C401.093 323.432 400.687 323.34 400.315 323.164C399.944 322.987 399.617 322.729 399.358 322.41C399.098 322.09 398.914 321.717 398.817 321.317C398.72 320.917 398.714 320.501 398.799 320.099L401.131 309.025C401.264 308.405 401.604 307.85 402.096 307.451C402.589 307.051 403.202 306.832 403.836 306.83H549.466C550.1 306.832 550.713 307.051 551.206 307.451C551.698 307.85 552.038 308.405 552.171 309.025L554.503 320.099C554.588 320.501 554.582 320.917 554.485 321.317C554.388 321.717 554.204 322.09 553.944 322.41C553.685 322.729 553.358 322.987 552.987 323.164C552.615 323.34 552.209 323.432 551.798 323.432H551.798Z" fill="#2F2E41"/>
<path d="M409.08 308.824H405.355C405.106 308.824 404.903 309.027 404.903 309.276V311.149C404.903 311.399 405.106 311.601 405.355 311.601H409.08C409.33 311.601 409.532 311.399 409.532 311.149V309.276C409.532 309.027 409.33 308.824 409.08 308.824Z" fill="#3F3D56"/>
<path d="M418.338 308.824H414.613C414.363 308.824 414.161 309.027 414.161 309.276V311.149C414.161 311.399 414.363 311.601 414.613 311.601H418.338C418.588 311.601 418.79 311.399 418.79 311.149V309.276C418.79 309.027 418.588 308.824 418.338 308.824Z" fill="#3F3D56"/>
<path d="M427.595 308.824H423.87C423.621 308.824 423.418 309.027 423.418 309.276V311.149C423.418 311.399 423.621 311.601 423.87 311.601H427.595C427.845 311.601 428.047 311.399 428.047 311.149V309.276C428.047 309.027 427.845 308.824 427.595 308.824Z" fill="#3F3D56"/>
<path d="M436.853 308.824H433.128C432.879 308.824 432.676 309.027 432.676 309.276V311.149C432.676 311.399 432.879 311.601 433.128 311.601H436.853C437.103 311.601 437.305 311.399 437.305 311.149V309.276C437.305 309.027 437.103 308.824 436.853 308.824Z" fill="#3F3D56"/>
<path d="M446.111 308.824H442.386C442.136 308.824 441.934 309.027 441.934 309.276V311.149C441.934 311.399 442.136 311.601 442.386 311.601H446.111C446.361 311.601 446.563 311.399 446.563 311.149V309.276C446.563 309.027 446.361 308.824 446.111 308.824Z" fill="#3F3D56"/>
<path d="M455.369 308.824H451.644C451.394 308.824 451.192 309.027 451.192 309.276V311.149C451.192 311.399 451.394 311.601 451.644 311.601H455.369C455.618 311.601 455.821 311.399 455.821 311.149V309.276C455.821 309.027 455.618 308.824 455.369 308.824Z" fill="#3F3D56"/>
<path d="M464.627 308.824H460.902C460.652 308.824 460.45 309.027 460.45 309.276V311.149C460.45 311.399 460.652 311.601 460.902 311.601H464.627C464.876 311.601 465.079 311.399 465.079 311.149V309.276C465.079 309.027 464.876 308.824 464.627 308.824Z" fill="#3F3D56"/>
<path d="M473.884 308.824H470.159C469.91 308.824 469.708 309.027 469.708 309.276V311.149C469.708 311.399 469.91 311.601 470.159 311.601H473.884C474.134 311.601 474.336 311.399 474.336 311.149V309.276C474.336 309.027 474.134 308.824 473.884 308.824Z" fill="#3F3D56"/>
<path d="M483.142 308.824H479.417C479.168 308.824 478.965 309.027 478.965 309.276V311.149C478.965 311.399 479.168 311.601 479.417 311.601H483.142C483.392 311.601 483.594 311.399 483.594 311.149V309.276C483.594 309.027 483.392 308.824 483.142 308.824Z" fill="#3F3D56"/>
<path d="M492.4 308.824H488.675C488.425 308.824 488.223 309.027 488.223 309.276V311.149C488.223 311.399 488.425 311.601 488.675 311.601H492.4C492.65 311.601 492.852 311.399 492.852 311.149V309.276C492.852 309.027 492.65 308.824 492.4 308.824Z" fill="#3F3D56"/>
<path d="M501.658 308.824H497.933C497.683 308.824 497.481 309.027 497.481 309.276V311.149C497.481 311.399 497.683 311.601 497.933 311.601H501.658C501.907 311.601 502.11 311.399 502.11 311.149V309.276C502.11 309.027 501.907 308.824 501.658 308.824Z" fill="#3F3D56"/>
<path d="M510.916 308.824H507.191C506.941 308.824 506.739 309.027 506.739 309.276V311.149C506.739 311.399 506.941 311.601 507.191 311.601H510.916C511.165 311.601 511.368 311.399 511.368 311.149V309.276C511.368 309.027 511.165 308.824 510.916 308.824Z" fill="#3F3D56"/>
<path d="M520.173 308.824H516.448C516.198 308.824 515.996 309.027 515.996 309.276V311.149C515.996 311.399 516.198 311.601 516.448 311.601H520.173C520.423 311.601 520.625 311.399 520.625 311.149V309.276C520.625 309.027 520.423 308.824 520.173 308.824Z" fill="#3F3D56"/>
<path d="M529.431 308.824H525.706C525.456 308.824 525.254 309.027 525.254 309.276V311.149C525.254 311.399 525.456 311.601 525.706 311.601H529.431C529.68 311.601 529.883 311.399 529.883 311.149V309.276C529.883 309.027 529.68 308.824 529.431 308.824Z" fill="#3F3D56"/>
<path d="M538.689 308.824H534.964C534.714 308.824 534.512 309.027 534.512 309.276V311.149C534.512 311.399 534.714 311.601 534.964 311.601H538.689C538.938 311.601 539.141 311.399 539.141 311.149V309.276C539.141 309.027 538.938 308.824 538.689 308.824Z" fill="#3F3D56"/>
<path d="M547.946 308.824H544.221C543.972 308.824 543.77 309.027 543.77 309.276V311.149C543.77 311.399 543.972 311.601 544.221 311.601H547.946C548.196 311.601 548.398 311.399 548.398 311.149V309.276C548.398 309.027 548.196 308.824 547.946 308.824Z" fill="#3F3D56"/>
<path d="M408.971 313.452H405.246C404.996 313.452 404.794 313.655 404.794 313.904V315.777C404.794 316.027 404.996 316.229 405.246 316.229H408.971C409.22 316.229 409.423 316.027 409.423 315.777V313.904C409.423 313.655 409.22 313.452 408.971 313.452Z" fill="#3F3D56"/>
<path d="M418.229 313.452H414.504C414.254 313.452 414.052 313.655 414.052 313.904V315.777C414.052 316.027 414.254 316.229 414.504 316.229H418.229C418.478 316.229 418.681 316.027 418.681 315.777V313.904C418.681 313.655 418.478 313.452 418.229 313.452Z" fill="#3F3D56"/>
<path d="M427.487 313.452H423.762C423.512 313.452 423.31 313.655 423.31 313.904V315.777C423.31 316.027 423.512 316.229 423.762 316.229H427.487C427.736 316.229 427.938 316.027 427.938 315.777V313.904C427.938 313.655 427.736 313.452 427.487 313.452Z" fill="#3F3D56"/>
<path d="M436.744 313.452H433.019C432.77 313.452 432.567 313.655 432.567 313.904V315.777C432.567 316.027 432.77 316.229 433.019 316.229H436.744C436.994 316.229 437.196 316.027 437.196 315.777V313.904C437.196 313.655 436.994 313.452 436.744 313.452Z" fill="#3F3D56"/>
<path d="M446.002 313.452H442.277C442.028 313.452 441.825 313.655 441.825 313.904V315.777C441.825 316.027 442.028 316.229 442.277 316.229H446.002C446.252 316.229 446.454 316.027 446.454 315.777V313.904C446.454 313.655 446.252 313.452 446.002 313.452Z" fill="#3F3D56"/>
<path d="M455.259 313.452H451.534C451.285 313.452 451.083 313.655 451.083 313.904V315.777C451.083 316.027 451.285 316.229 451.534 316.229H455.259C455.509 316.229 455.711 316.027 455.711 315.777V313.904C455.711 313.655 455.509 313.452 455.259 313.452Z" fill="#3F3D56"/>
<path d="M464.517 313.452H460.792C460.543 313.452 460.34 313.655 460.34 313.904V315.777C460.34 316.027 460.543 316.229 460.792 316.229H464.517C464.767 316.229 464.969 316.027 464.969 315.777V313.904C464.969 313.655 464.767 313.452 464.517 313.452Z" fill="#3F3D56"/>
<path d="M473.775 313.452H470.05C469.8 313.452 469.598 313.655 469.598 313.904V315.777C469.598 316.027 469.8 316.229 470.05 316.229H473.775C474.025 316.229 474.227 316.027 474.227 315.777V313.904C474.227 313.655 474.025 313.452 473.775 313.452Z" fill="#3F3D56"/>
<path d="M483.033 313.452H479.308C479.058 313.452 478.856 313.655 478.856 313.904V315.777C478.856 316.027 479.058 316.229 479.308 316.229H483.033C483.282 316.229 483.485 316.027 483.485 315.777V313.904C483.485 313.655 483.282 313.452 483.033 313.452Z" fill="#3F3D56"/>
<path d="M492.291 313.452H488.566C488.316 313.452 488.114 313.655 488.114 313.904V315.777C488.114 316.027 488.316 316.229 488.566 316.229H492.291C492.54 316.229 492.743 316.027 492.743 315.777V313.904C492.743 313.655 492.54 313.452 492.291 313.452Z" fill="#3F3D56"/>
<path d="M501.549 313.452H497.824C497.574 313.452 497.372 313.655 497.372 313.904V315.777C497.372 316.027 497.574 316.229 497.824 316.229H501.549C501.798 316.229 502.001 316.027 502.001 315.777V313.904C502.001 313.655 501.798 313.452 501.549 313.452Z" fill="#3F3D56"/>
<path d="M510.806 313.452H507.081C506.832 313.452 506.629 313.655 506.629 313.904V315.777C506.629 316.027 506.832 316.229 507.081 316.229H510.806C511.056 316.229 511.258 316.027 511.258 315.777V313.904C511.258 313.655 511.056 313.452 510.806 313.452Z" fill="#3F3D56"/>
<path d="M520.064 313.452H516.339C516.089 313.452 515.887 313.655 515.887 313.904V315.777C515.887 316.027 516.089 316.229 516.339 316.229H520.064C520.313 316.229 520.516 316.027 520.516 315.777V313.904C520.516 313.655 520.313 313.452 520.064 313.452Z" fill="#3F3D56"/>
<path d="M529.322 313.452H525.597C525.347 313.452 525.145 313.655 525.145 313.904V315.777C525.145 316.027 525.347 316.229 525.597 316.229H529.322C529.571 316.229 529.774 316.027 529.774 315.777V313.904C529.774 313.655 529.571 313.452 529.322 313.452Z" fill="#3F3D56"/>
<path d="M538.579 313.452H534.854C534.605 313.452 534.402 313.655 534.402 313.904V315.777C534.402 316.027 534.605 316.229 534.854 316.229H538.579C538.829 316.229 539.031 316.027 539.031 315.777V313.904C539.031 313.655 538.829 313.452 538.579 313.452Z" fill="#3F3D56"/>
<path d="M547.837 313.452H544.112C543.862 313.452 543.66 313.655 543.66 313.904V315.777C543.66 316.027 543.862 316.229 544.112 316.229H547.837C548.087 316.229 548.289 316.027 548.289 315.777V313.904C548.289 313.655 548.087 313.452 547.837 313.452Z" fill="#3F3D56"/>
<path d="M485.81 319.006H449.683C449.433 319.006 449.231 319.208 449.231 319.458V321.331C449.231 321.58 449.433 321.783 449.683 321.783H485.81C486.06 321.783 486.262 321.58 486.262 321.331V319.458C486.262 319.208 486.06 319.006 485.81 319.006Z" fill="#3F3D56"/>
<path d="M583.605 534.689L576.467 523.221L575.042 529.774C574.792 530.922 574.542 532.088 574.31 533.245C572.283 531.514 570.126 529.913 568.015 528.376C561.535 523.674 555.057 518.966 548.583 514.251L550.61 526.007C551.86 533.245 553.166 540.631 556.258 547.249C556.6 547.999 556.971 548.74 557.369 549.462H587.494C587.736 548.791 587.904 548.096 587.993 547.388C588.001 547.342 588.004 547.296 588.003 547.249C588.475 542.76 585.994 538.53 583.605 534.689Z" fill="#F0F0F0"/>
<path d="M176.264 534.689L169.126 523.221L167.7 529.774C167.45 530.922 167.2 532.088 166.969 533.245C164.942 531.514 162.785 529.913 160.674 528.376C154.194 523.674 147.716 518.966 141.242 514.251L143.269 526.007C144.519 533.245 145.824 540.631 148.916 547.249C149.259 547.999 149.629 548.74 150.028 549.462H180.152C180.395 548.791 180.562 548.096 180.652 547.388C180.66 547.342 180.663 547.296 180.661 547.249C181.134 542.76 178.652 538.53 176.264 534.689Z" fill="#F0F0F0"/>
<path d="M748.894 550.715L493.612 551C493.32 550.999 493.04 550.883 492.834 550.676C492.628 550.469 492.513 550.19 492.513 549.898C492.513 549.606 492.628 549.326 492.834 549.12C493.04 548.913 493.32 548.797 493.612 548.796L748.894 548.511C749.186 548.512 749.466 548.629 749.672 548.835C749.878 549.042 749.994 549.322 749.994 549.613C749.994 549.905 749.878 550.185 749.672 550.392C749.466 550.598 749.186 550.715 748.894 550.715Z" fill="#CACACA"/>
<path d="M256.382 550.715L1.09912 551C0.807322 550.999 0.527772 550.883 0.321739 550.676C0.115706 550.469 0 550.19 0 549.898C0 549.606 0.115706 549.326 0.321739 549.12C0.527772 548.913 0.807322 548.797 1.09912 548.796L256.382 548.511C256.674 548.512 256.953 548.629 257.159 548.835C257.365 549.042 257.481 549.322 257.481 549.613C257.481 549.905 257.365 550.185 257.159 550.392C256.953 550.598 256.674 550.715 256.382 550.715Z" fill="#CACACA"/>
<path d="M165.129 39.2504C160.713 40.5648 156.593 36.8716 153.52 33.3728L154.612 34.6687C147.382 39.7595 143.059 48.0529 140.254 56.4482C137.448 64.8342 135.884 73.6182 132.718 81.8839C129.552 90.1403 124.441 98.1283 116.618 102.247C106.139 107.764 93.2982 105.255 82.1518 101.275C82.0037 101.22 81.8648 101.174 81.7167 101.118C86.2312 92.6868 88.9959 83.4308 89.845 73.9051C85.2597 82.8556 78.6468 90.6114 70.5333 96.5547C63.2502 93.2446 56.247 89.3506 49.5923 84.9106C45.2874 82.032 40.7511 78.311 40.2512 73.1554C39.742 68.0368 43.5655 63.3625 48.074 60.9004C52.5826 58.4383 57.7669 57.6052 62.692 56.1242C67.6079 54.6525 72.6256 52.2367 75.2085 47.7938C81.1612 37.5751 71.1444 23.1634 77.5322 13.2038C80.6799 8.30738 86.79 6.34509 92.4557 4.98444C101.104 2.91631 109.881 1.43505 118.729 0.550792C126.496 -0.226718 134.523 -0.513654 141.911 1.98549C149.298 4.48462 156.001 10.2882 157.584 17.9337C161.898 20.2014 166.462 22.7098 168.777 27.0139C171.091 31.3087 169.804 37.862 165.129 39.2504Z" fill="#2F2E41"/>
<path d="M158.537 37.5283C154.308 42.8245 152.006 48.552 152.006 51.9821C143.222 68.0341 155.784 81.8221 171.839 90.6046C178.243 94.126 185.637 95.4148 192.855 94.2677L193.526 91.4009L194.436 93.9833C194.436 93.9833 204.889 128.502 208.337 130.527C207.029 124.384 205.53 95.9401 204.802 89.9447C203.793 81.7848 207.309 69.6366 209.844 62.2491C211.417 57.696 212.223 52.914 212.232 48.0972V47.8866L214.701 55.8159L223.69 51.9821C222.018 42.3919 223.69 31.5048 203.641 32.449C192.798 24.9929 183.249 23.8571 175.405 25.9718C174.393 24.4071 168.556 27.3378 166.869 26.5139" fill="#2F2E41"/>
<path d="M605.456 76.5339V245.568C605.454 246.748 604.984 247.88 604.149 248.714C603.315 249.549 602.183 250.018 601.003 250.02H511.925C502.07 240.883 493.986 230.008 488.077 217.939C487.688 217.161 487.318 216.375 486.966 215.579C481.582 203.897 478.322 191.351 477.338 178.527C477.273 177.74 477.217 176.953 477.18 176.157C477.06 174.121 477.004 172.057 477.004 169.983C476.987 156.194 479.591 142.527 484.679 129.71C484.985 128.914 485.309 128.127 485.642 127.341C495.881 103.287 514.384 83.6846 537.809 72.0725H601.003C602.185 72.0751 603.317 72.5462 604.152 73.3826C604.987 74.219 605.456 75.3523 605.456 76.5339Z" fill="#FFE999"/>
<path d="M588.304 95.3615H351.932C351.686 95.3562 351.452 95.2548 351.28 95.0791C351.108 94.9034 351.012 94.6675 351.012 94.4217C351.012 94.176 351.108 93.94 351.28 93.7644C351.452 93.5887 351.686 93.4873 351.932 93.4819H588.304C588.55 93.4873 588.784 93.5887 588.955 93.7644C589.127 93.94 589.224 94.176 589.224 94.4217C589.224 94.6675 589.127 94.9034 588.955 95.0791C588.784 95.2548 588.55 95.3562 588.304 95.3615Z" fill="#CACACA"/>
<path d="M368.022 88.6834C371.064 88.6834 373.531 86.1625 373.531 83.0529C373.531 79.9432 371.064 77.4224 368.022 77.4224C364.98 77.4224 362.513 79.9432 362.513 83.0529C362.513 86.1625 364.98 88.6834 368.022 88.6834Z" fill="#3F3D56"/>
<path d="M387.052 88.6834C390.095 88.6834 392.561 86.1625 392.561 83.0529C392.561 79.9432 390.095 77.4224 387.052 77.4224C384.01 77.4224 381.543 79.9432 381.543 83.0529C381.543 86.1625 384.01 88.6834 387.052 88.6834Z" fill="#3F3D56"/>
<path d="M406.082 88.6834C409.125 88.6834 411.591 86.1625 411.591 83.0529C411.591 79.9432 409.125 77.4224 406.082 77.4224C403.04 77.4224 400.574 79.9432 400.574 83.0529C400.574 86.1625 403.04 88.6834 406.082 88.6834Z" fill="#3F3D56"/>
<path d="M576.846 78.8181H563.328C563.06 78.8234 562.805 78.9336 562.617 79.1249C562.43 79.3162 562.325 79.5735 562.325 79.8415C562.325 80.1095 562.43 80.3668 562.617 80.5581C562.805 80.7495 563.06 80.8596 563.328 80.8649H576.846C577.114 80.8596 577.37 80.7495 577.557 80.5581C577.745 80.3668 577.85 80.1095 577.85 79.8415C577.85 79.5735 577.745 79.3162 577.557 79.1249C577.37 78.9336 577.114 78.8234 576.846 78.8181Z" fill="#3F3D56"/>
<path d="M576.846 82.6594H563.328C563.06 82.6647 562.805 82.7749 562.617 82.9662C562.43 83.1575 562.325 83.4148 562.325 83.6828C562.325 83.9508 562.43 84.2081 562.617 84.3994C562.805 84.5907 563.06 84.7009 563.328 84.7062H576.846C577.114 84.7009 577.37 84.5907 577.557 84.3994C577.745 84.2081 577.85 83.9508 577.85 83.6828C577.85 83.4148 577.745 83.1575 577.557 82.9662C577.37 82.7749 577.114 82.6647 576.846 82.6594Z" fill="#3F3D56"/>
<path d="M576.846 86.4958H563.328C563.06 86.5011 562.805 86.6113 562.617 86.8026C562.43 86.994 562.325 87.2512 562.325 87.5192C562.325 87.7872 562.43 88.0445 562.617 88.2358C562.805 88.4272 563.06 88.5373 563.328 88.5426H576.846C577.114 88.5373 577.37 88.4272 577.557 88.2358C577.745 88.0445 577.85 87.7872 577.85 87.5192C577.85 87.2512 577.745 86.994 577.557 86.8026C577.37 86.6113 577.114 86.5011 576.846 86.4958Z" fill="#3F3D56"/>
<path d="M422.547 150.267H393.011C390.793 150.267 388.994 152.065 388.994 154.283V154.283C388.994 156.501 390.793 158.299 393.011 158.299H422.547C424.766 158.299 426.564 156.501 426.564 154.283C426.564 152.065 424.766 150.267 422.547 150.267Z" fill="#FFE999"/>
<path d="M441.627 166.331H373.931C371.712 166.331 369.914 168.129 369.914 170.347C369.914 172.566 371.712 174.364 373.931 174.364H441.627C443.846 174.364 445.644 172.566 445.644 170.347C445.644 168.129 443.846 166.331 441.627 166.331Z" fill="#E6E6E6"/>
<path d="M441.627 182.396H373.931C371.712 182.396 369.914 184.194 369.914 186.412V186.412C369.914 188.63 371.712 190.429 373.931 190.429H441.627C443.846 190.429 445.644 188.63 445.644 186.412C445.644 184.194 443.846 182.396 441.627 182.396Z" fill="#E6E6E6"/>
<path d="M376.095 240.329C376.101 243.638 375.511 246.92 374.355 250.02H348.387C347.206 250.018 346.075 249.549 345.24 248.714C344.405 247.88 343.936 246.748 343.934 245.568V212.913C345.385 212.678 346.852 212.561 348.322 212.561C351.969 212.561 355.581 213.279 358.95 214.674C362.32 216.07 365.382 218.115 367.961 220.694C370.54 223.272 372.586 226.333 373.981 229.703C375.377 233.072 376.095 236.683 376.095 240.329Z" fill="#FFE999"/>
<path opacity="0.2" d="M605.687 129.71V127.34H565.962V99.8777H563.601V127.34H518.072V99.8777H515.711V127.34H485.642C485.309 128.127 484.984 128.914 484.679 129.71H515.711V176.157H477.18C477.217 176.953 477.273 177.74 477.338 178.527H515.711V215.579H486.966C487.317 216.375 487.688 217.161 488.077 217.939H515.711V249.086H518.072V217.939H563.601V249.086H565.962V217.939H605.687V215.579H565.962V178.527H605.687V176.157H565.962V129.71H605.687ZM563.601 215.579H518.072V178.527H563.601V215.579ZM563.601 176.157H518.072V129.71H563.601V176.157Z" fill="black"/>
<path d="M573.703 232.484C573.196 232.507 572.694 232.374 572.266 232.103C571.837 231.831 571.502 231.435 571.307 230.967C571.111 230.499 571.064 229.982 571.172 229.487C571.28 228.991 571.537 228.541 571.91 228.197L572.079 227.523C572.057 227.469 572.034 227.415 572.012 227.361C571.501 226.155 570.646 225.128 569.553 224.407C568.46 223.686 567.179 223.304 565.869 223.308C564.56 223.313 563.281 223.705 562.194 224.434C561.106 225.163 560.259 226.197 559.757 227.407C557.753 232.233 555.201 237.068 554.573 242.171C554.296 244.427 554.413 246.713 554.918 248.929C550.21 238.662 547.765 227.503 547.75 216.208C547.749 213.374 547.906 210.542 548.221 207.725C548.482 205.416 548.843 203.123 549.306 200.847C551.829 188.496 557.246 176.92 565.113 167.07C568.921 164.993 572 161.799 573.936 157.918C574.637 156.523 575.133 155.034 575.407 153.497C574.978 153.553 574.541 153.588 574.112 153.616C573.978 153.623 573.837 153.631 573.703 153.638L573.653 153.64C573.181 153.661 572.713 153.545 572.305 153.307C571.897 153.068 571.567 152.717 571.354 152.295C571.142 151.873 571.055 151.399 571.106 150.929C571.157 150.459 571.342 150.014 571.64 149.647C571.825 149.419 572.011 149.191 572.197 148.963C572.478 148.611 572.767 148.266 573.048 147.914C573.081 147.881 573.112 147.845 573.14 147.809C573.464 147.407 573.788 147.013 574.112 146.612C573.521 145.694 572.725 144.926 571.788 144.366C568.542 142.465 564.064 143.782 561.719 146.717C559.368 149.653 558.924 153.771 559.741 157.439C560.544 160.56 561.873 163.522 563.67 166.197C563.494 166.422 563.311 166.64 563.135 166.865C559.917 171.002 557.112 175.445 554.761 180.129C555.333 174.881 554.65 169.573 552.77 164.641C550.864 160.044 547.292 156.173 544.146 152.199C540.368 147.426 532.62 149.509 531.954 155.56C531.948 155.618 531.941 155.677 531.935 155.735C532.402 155.999 532.86 156.279 533.307 156.575C533.87 156.95 534.305 157.487 534.557 158.114C534.809 158.741 534.866 159.43 534.719 160.09C534.573 160.75 534.231 161.35 533.738 161.813C533.244 162.275 532.623 162.577 531.954 162.68L531.886 162.691C532.052 164.375 532.347 166.043 532.766 167.682C533.982 172.258 536.129 176.533 539.075 180.24C542.02 183.947 545.7 187.006 549.883 189.224C550.158 189.365 550.425 189.506 550.7 189.639C548.338 196.332 546.856 203.304 546.292 210.379C545.973 214.553 545.992 218.746 546.349 222.917L546.327 222.769C545.426 218.131 542.951 213.946 539.321 210.921C533.93 206.493 526.313 204.862 520.496 201.303C519.878 200.906 519.16 200.694 518.425 200.693C517.69 200.691 516.971 200.899 516.35 201.293C515.73 201.687 515.236 202.25 514.925 202.915C514.615 203.581 514.501 204.321 514.597 205.049C514.605 205.101 514.613 205.153 514.621 205.205C515.488 205.558 516.332 205.964 517.149 206.423C517.616 206.686 518.073 206.966 518.521 207.262C519.083 207.637 519.519 208.174 519.771 208.801C520.023 209.428 520.079 210.117 519.933 210.777C519.787 211.437 519.445 212.038 518.951 212.5C518.458 212.962 517.836 213.264 517.168 213.367L517.1 213.378C517.05 213.385 517.008 213.392 516.959 213.399C518.44 216.936 520.52 220.191 523.106 223.023C526.3 226.45 530.162 229.189 534.453 231.071C538.743 232.954 543.374 233.94 548.059 233.97H548.067C549.339 239.496 551.181 244.875 553.566 250.02H573.21C573.281 249.802 573.344 249.577 573.408 249.359C571.589 249.473 569.764 249.364 567.972 249.035C569.429 247.247 570.887 245.444 572.344 243.656C572.377 243.623 572.407 243.588 572.436 243.551C573.175 242.636 573.922 241.727 574.661 240.812L574.661 240.811C574.701 238.006 574.379 235.207 573.703 232.484L573.703 232.484ZM551.207 188.239L551.217 188.225L551.207 188.253V188.239ZM546.855 227.458L546.686 227.078C546.694 226.803 546.694 226.528 546.686 226.247C546.686 226.169 546.672 226.092 546.672 226.015C546.736 226.5 546.792 226.986 546.862 227.472L546.855 227.458Z" fill="#2F2E41"/>
</svg>
