<?xml version="1.0" encoding="utf-8"?>
<!-- Generator: Adobe Illustrator 26.0.1, SVG Export Plug-In . SVG Version: 6.00 Build 0)  -->
<svg version="1.1" xmlns="http://www.w3.org/2000/svg" xmlns:xlink="http://www.w3.org/1999/xlink" x="0px" y="0px"
	 viewBox="0 0 510 510" style="enable-background:new 0 0 510 510;" xml:space="preserve">
<style type="text/css">
	.st0{fill:#FFE999;}
	.st1{display:none;}
	.st2{display:inline;}
	.st3{fill:#F7A797;}
	.st4{fill:#FEFCF9;}
	.st5{fill:#FBD3CB;}
	.st6{fill:#9DD4E7;}
	.st7{fill:#C3E5F0;}
	.st8{fill:#9AEAB5;}
	.st9{fill:#BCF1CE;}
</style>
<g id="Layer_1">
	<g>
		<circle class="st0" cx="255" cy="255" r="225"/>
	</g>
</g>
<g id="Layer_2">
	<g class="st1">
		<g class="st2">
			<path class="st3" d="M436.3,79.7c-36.6-37.8-84.8-63.9-136.7-73.1c-53-9.4-108.1-1.9-156.5,21.8C96.5,51.3,57.2,89.1,32.5,134.8
				C7.4,181.2-2.6,235.2,4.2,287.6c5.9,44.9,23.7,87.3,51.5,123c27.4,35.1,63.9,62.3,105.2,79c43,17.4,90.7,22,136.4,14.4
				c44.1-7.4,85.7-27,120-55.8c34.1-28.6,60.1-66.3,75.2-108.1c17.4-48.2,19.3-101.9,5.9-151.4c-3.7-13.7-8.7-27.1-14.7-40
				c-1.7-3.7-7-4.5-10.3-2.7c-3.8,2.2-4.4,6.6-2.7,10.3c39.5,86.3,22.7,190.7-41.8,260.1c-58.9,63.4-149.6,90.3-233.5,68.7
				c-81.5-21-147.4-85.7-169.8-166.9c-12.7-46.3-11-96,4.7-141.4C46.5,130,77.8,88.7,118.4,60.4c41.3-28.8,90.9-43.8,141.2-42.8
				c50.3,1,99.5,18.3,139.5,48.8c9.5,7.3,18.4,15.3,26.7,23.9C432.4,97.2,443,86.6,436.3,79.7L436.3,79.7z"/>
		</g>
	</g>
	<g>
		<g>
			<g>
				<path class="st4" d="M133.4,201.1c-2.1,8.3-5,16.7-5.7,25.2c-0.7,8.4,0.7,16.9,4,24.7c3.3,7.7,8,13.9,8.2,22.7
					c0.2,9.1-4.3,15.4-7.7,23.3c-3.3,7.7-4.9,16.2-4.4,24.5c0.5,8.9,3.5,17.8,5.7,26.4c0.5,1.9,3.4,1.1,2.9-0.8
					c-2.3-8.9-5.4-18.1-5.7-27.3c-0.2-9.2,2-18.2,6.4-26.2c3.5-6.3,5.9-12.6,5.8-20c-0.2-7.2-2.8-13.1-6.3-19.3
					c-4.4-8-6.5-17.2-6-26.4c0.5-8.8,3.5-17.6,5.7-26.1C136.7,200,133.8,199.2,133.4,201.1L133.4,201.1z"/>
			</g>
		</g>
		<g>
			<path class="st3" d="M177.5,145.5c0-27-19-48.9-42.3-48.9s-42.3,21.9-42.3,48.9c0,25.2,16.4,45.9,37.6,48.6l-3.1,7.4H143
				l-3.8-7.3C160.7,191.8,177.5,170.9,177.5,145.5z"/>
			<g>
				<path class="st3" d="M181.7,145.5c-0.2-15.3-5.8-30.8-17.2-41.3c-10.6-9.7-25.2-14.1-39.3-10.6c-31.6,7.8-43.7,46.8-32.1,74.6
					c6.3,15.2,19.5,27.5,36.2,30c-1-1.7-2-3.5-3-5.2c-1,2.5-2.1,4.9-3.1,7.4c-1.1,2.6,1.6,5.4,4.1,5.4c5.3,0,10.5,0,15.8,0
					c3.3,0,5.1-3.6,3.7-6.4c-1.3-2.4-2.6-4.9-3.8-7.3c-1.2,2.1-2.4,4.2-3.7,6.4C165.5,195.1,181.4,170.7,181.7,145.5
					c0.1-5.5-8.4-5.5-8.5,0c-0.3,20.1-12.5,41.7-34.1,44.5c-3.2,0.4-5.3,3.3-3.7,6.4c1.3,2.4,2.6,4.9,3.8,7.3
					c1.2-2.1,2.4-4.2,3.7-6.4c-5.3,0-10.5,0-15.8,0c1.4,1.8,2.7,3.6,4.1,5.4c1-2.5,2.1-4.9,3.1-7.4c0.8-1.9-0.9-4.9-3-5.2
					c-27.1-4-39.6-34.7-32.4-59.1c7.1-24,34.2-39.5,56.3-23.3c11.9,8.8,17.6,23.4,17.8,37.9C173.3,150.9,181.8,150.9,181.7,145.5z"
					/>
			</g>
		</g>
		<g>
			<g>
				<path class="st5" d="M136,105.5c16.7,2.7,30.6,15.4,31.8,32.7c0.3,3.8,6.3,3.9,6,0c-1.4-19.8-16.8-35.3-36.2-38.4
					C133.8,99.1,132.2,104.8,136,105.5L136,105.5z"/>
			</g>
		</g>
	</g>
	<g>
		<g>
			<g>
				<path class="st4" d="M228.7,306.7c2.2,8.5,5.3,17.3,5.7,26.1c0.5,9.1-1.6,18.3-6,26.4c-3.4,6.2-6.1,12.1-6.3,19.3
					c-0.2,7.4,2.3,13.6,5.8,20c4.4,8,6.7,17,6.4,26.2c-0.2,9.2-3.4,18.4-5.7,27.3c-0.5,1.9,2.4,2.7,2.9,0.8
					c2.2-8.6,5.2-17.5,5.7-26.4c0.5-8.4-1.1-16.8-4.4-24.5c-3.4-7.9-7.9-14.2-7.7-23.3c0.2-8.8,4.9-14.9,8.2-22.7
					c3.3-7.7,4.7-16.3,4-24.7c-0.7-8.5-3.6-17-5.7-25.2C231.1,304.1,228.2,304.9,228.7,306.7L228.7,306.7z"/>
			</g>
		</g>
		<g>
			<path class="st6" d="M272.1,250.4c0-27-19-48.9-42.3-48.9s-42.3,21.9-42.3,48.9c0,25.2,16.4,45.9,37.6,48.6l-3.1,7.4h15.8
				l-3.8-7.3C255.3,296.7,272.1,275.8,272.1,250.4z"/>
			<g>
				<path class="st6" d="M276.4,250.4c-0.2-15.3-5.8-30.8-17.2-41.3c-10.6-9.7-25.2-14.1-39.3-10.6c-31.6,7.8-43.7,46.8-32.1,74.6
					c6.3,15.2,19.5,27.5,36.2,30c-1-1.7-2-3.5-3-5.2c-1,2.5-2.1,4.9-3.1,7.4c-1.1,2.6,1.6,5.4,4.1,5.4c5.3,0,10.5,0,15.8,0
					c3.3,0,5.1-3.6,3.7-6.4c-1.3-2.4-2.6-4.9-3.8-7.3c-1.2,2.1-2.4,4.2-3.7,6.4C260.1,300,276,275.6,276.4,250.4
					c0.1-5.5-8.4-5.5-8.5,0c-0.3,20.1-12.5,41.7-34.1,44.5c-3.2,0.4-5.3,3.3-3.7,6.4c1.3,2.4,2.6,4.9,3.8,7.3
					c1.2-2.1,2.4-4.2,3.7-6.4c-5.3,0-10.5,0-15.8,0c1.4,1.8,2.7,3.6,4.1,5.4c1-2.5,2.1-4.9,3.1-7.4c0.8-1.9-0.9-4.9-3-5.2
					c-27.1-4-39.6-34.7-32.4-59.1c7.1-24,34.2-39.5,56.3-23.3c11.9,8.8,17.6,23.4,17.8,37.9C268,255.8,276.4,255.8,276.4,250.4z"/>
			</g>
		</g>
		<g>
			<g>
				<path class="st7" d="M230.7,210.4c16.7,2.7,30.6,15.4,31.8,32.7c0.3,3.8,6.3,3.9,6,0c-1.4-19.8-16.8-35.3-36.2-38.4
					C228.5,203.9,226.9,209.7,230.7,210.4L230.7,210.4z"/>
			</g>
		</g>
	</g>
	<g>
		<g>
			<g>
				<path class="st4" d="M326.2,163.5c2.2,8.5,5.3,17.3,5.7,26.1c0.5,9.1-1.6,18.3-6,26.4c-3.4,6.2-6.1,12.1-6.3,19.3
					c-0.2,7.4,2.3,13.6,5.8,20c4.4,8,6.7,17,6.4,26.2c-0.2,9.2-3.4,18.4-5.7,27.3c-0.5,1.9,2.4,2.7,2.9,0.8
					c2.2-8.6,5.2-17.5,5.7-26.4c0.5-8.4-1.1-16.8-4.4-24.5c-3.4-7.9-7.9-14.2-7.7-23.3c0.2-8.8,4.9-14.9,8.2-22.7
					c3.3-7.7,4.7-16.3,4-24.7c-0.7-8.5-3.6-17-5.7-25.2C328.6,160.9,325.7,161.6,326.2,163.5L326.2,163.5z"/>
			</g>
		</g>
		<g>
			<path class="st8" d="M369.7,107.1c0-27-19-48.9-42.3-48.9S285,80.1,285,107.1c0,25.2,16.4,45.9,37.6,48.6l-3.1,7.4h15.8l-3.8-7.3
				C352.9,153.5,369.7,132.6,369.7,107.1z"/>
			<g>
				<path class="st8" d="M373.9,107.1c-0.2-15.3-5.8-30.8-17.2-41.3c-10.6-9.7-25.2-14.1-39.3-10.6c-31.6,7.8-43.7,46.8-32.1,74.6
					c6.3,15.2,19.5,27.5,36.2,30c-1-1.7-2-3.5-3-5.2c-1,2.5-2.1,4.9-3.1,7.4c-1.1,2.6,1.6,5.4,4.1,5.4c5.3,0,10.5,0,15.8,0
					c3.3,0,5.1-3.6,3.7-6.4c-1.3-2.4-2.6-4.9-3.8-7.3c-1.2,2.1-2.4,4.2-3.7,6.4C357.6,156.7,373.6,132.4,373.9,107.1
					c0.1-5.5-8.4-5.5-8.5,0c-0.3,20.1-12.5,41.7-34.1,44.5c-3.2,0.4-5.3,3.3-3.7,6.4c1.3,2.4,2.6,4.9,3.8,7.3
					c1.2-2.1,2.4-4.2,3.7-6.4c-5.3,0-10.5,0-15.8,0c1.4,1.8,2.7,3.6,4.1,5.4c1-2.5,2.1-4.9,3.1-7.4c0.8-1.9-0.9-4.9-3-5.2
					c-27.1-4-39.6-34.7-32.4-59.1c7.1-24,34.2-39.5,56.3-23.3c11.9,8.8,17.6,23.4,17.8,37.9C365.5,112.6,374,112.6,373.9,107.1z"/>
			</g>
		</g>
		<g>
			<g>
				<path class="st9" d="M328.2,67.1c16.7,2.7,30.6,15.4,31.8,32.7c0.3,3.8,6.3,3.9,6,0c-1.4-19.8-16.8-35.3-36.2-38.4
					C326,60.7,324.4,66.5,328.2,67.1L328.2,67.1z"/>
			</g>
		</g>
	</g>
	<circle class="st7" cx="250.4" cy="248.1" r="1.5"/>
	<g>
		<polygon class="st4" points="445.5,358.9 250.4,248.1 449.2,352.1 		"/>
		
			<ellipse transform="matrix(0.9588 -0.2841 0.2841 0.9588 -83.7985 145.0675)" class="st3" cx="458.1" cy="361.4" rx="16.8" ry="16.8"/>
	</g>
</g>
</svg>
