<?xml version="1.0" encoding="utf-8"?>
<!-- Generator: Adobe Illustrator 26.0.1, SVG Export Plug-In . SVG Version: 6.00 Build 0)  -->
<svg version="1.1" xmlns="http://www.w3.org/2000/svg" xmlns:xlink="http://www.w3.org/1999/xlink" x="0px" y="0px"
	 viewBox="0 0 510 510" style="enable-background:new 0 0 510 510;" xml:space="preserve">
<style type="text/css">
	.st0{fill:#FFE999;}
	.st1{display:none;}
	.st2{display:inline;}
	.st3{fill:#F7A797;}
	.st4{fill:none;stroke:#F7A797;stroke-miterlimit:10;}
	.st5{fill:#FEFCF9;}
	.st6{fill:#FBD3CB;}
</style>
<g id="Layer_1">
	<g>
		<circle class="st0" cx="255" cy="255" r="225"/>
	</g>
	<g class="st1">
		<g class="st2">
			<path class="st3" d="M436.3,79.7c-36.6-37.8-84.8-63.9-136.7-73.1c-53-9.4-108.1-1.9-156.5,21.8C96.5,51.3,57.2,89.1,32.5,134.8
				C7.4,181.2-2.6,235.2,4.2,287.6c5.9,44.9,23.7,87.3,51.5,123c27.4,35.1,63.9,62.3,105.2,79c43,17.4,90.7,22,136.4,14.4
				c44.1-7.4,85.7-27,120-55.8c34.1-28.6,60.1-66.3,75.2-108.1c17.4-48.2,19.3-101.9,5.9-151.4c-3.7-13.7-8.7-27.1-14.7-40
				c-1.7-3.7-7-4.5-10.3-2.7c-3.8,2.2-4.4,6.6-2.7,10.3c39.5,86.3,22.7,190.7-41.8,260.1c-58.9,63.4-149.6,90.3-233.5,68.7
				c-81.5-21-147.4-85.7-169.8-166.9c-12.7-46.3-11-96,4.7-141.4C46.5,130,77.8,88.7,118.4,60.4c41.3-28.8,90.9-43.8,141.2-42.8
				c50.3,1,99.5,18.3,139.5,48.8c9.5,7.3,18.4,15.3,26.7,23.9C432.4,97.2,443,86.6,436.3,79.7L436.3,79.7z"/>
		</g>
	</g>
	<path class="st4" d="M255,458.4"/>
	<g>
		<g>
			<path class="st5" d="M242.9,449.6c-79-0.3-148.2-54.1-173.6-128.1c-26-76-4.7-163.6,56.2-216.8c32.4-28.4,74.3-44.2,117.4-44.4
				c-1.8-4.3-3.5-8.5-5.3-12.8c-7.2,7.6-14.4,15.2-21.6,22.7c-6.6,7,3.9,17.6,10.6,10.6c7.2-7.6,14.4-15.2,21.6-22.7
				c4.4-4.6,1.3-12.8-5.3-12.8c-41.4,0.2-82.2,13.7-115.4,38.6c-33.4,25.1-58.4,59.8-72.2,99.2c-28.5,81.3-5.1,176.9,60.6,233.5
				c35.3,30.5,80.3,47.8,127,47.9C252.6,464.7,252.6,449.7,242.9,449.6L242.9,449.6z"/>
		</g>
	</g>
	<g>
		<g>
			<path class="st5" d="M266.1,60.4c79,0.3,148.2,54.1,173.6,128.1c26,76,4.7,163.6-56.2,216.8c-32.4,28.4-74.3,44.2-117.4,44.4
				c1.8,4.3,3.5,8.5,5.3,12.8c7.2-7.6,14.4-15.2,21.6-22.7c6.6-7-3.9-17.6-10.6-10.6c-7.2,7.6-14.4,15.2-21.6,22.7
				c-4.4,4.6-1.3,12.8,5.3,12.8c41.4-0.2,82.2-13.7,115.4-38.6c33.4-25.1,58.4-59.8,72.2-99.2c28.5-81.3,5.1-176.9-60.6-233.5
				c-35.3-30.5-80.3-47.8-127-47.9C256.4,45.3,256.4,60.3,266.1,60.4L266.1,60.4z"/>
		</g>
	</g>
</g>
<g id="Layer_2">
</g>
<g id="Layer_3">
	<g>
		<path class="st3" d="M239.2,121.8c0,0,2.3,5.6,3.5,40.7c0,0-1.4,14.8,8.1,24.3c0,0,4.1,12.9-1.2,44c1.2,32,0,43.8,0,43.8
			s-2.4,41-32.5,63.3c-32.7,16.8-48.7,26.9-64.3,29.9c-15.6,3.1-27,14.5-27,14.5s-9.5,11.3-12.3-13.5c-1.5-27-2.4-79.5,6.5-114.6
			c8.9-35.1,23.4-84.1,76.6-139.6C230.8,92.8,239.2,121.8,239.2,121.8z"/>
		<path class="st3" d="M270.8,121.8c0,0-2.3,5.6-3.5,40.7c0,0,1.4,14.8-8.1,24.3c0,0-4.1,12.9,1.2,44c-1.2,32,0,43.8,0,43.8
			s2.4,41,32.5,63.3c32.7,16.8,48.7,26.9,64.3,29.9c15.6,3.1,27,14.5,27,14.5s9.5,11.3,12.3-13.5c1.5-27,2.4-79.5-6.5-114.6
			c-8.9-35.1-23.4-84.1-76.6-139.6C279.2,92.8,270.8,121.8,270.8,121.8z"/>
		<path class="st6" d="M261.5,105.2v72.2c0,0,11,6.9,17.1,21.2c10.1-5.5,10.8-6.3,10.8-6.3s-1.5-14.4,2.1-24.6
			c-3.5-5.5-5.4-8.6-5.4-8.6c-0.6-1,0.2-7.2,7.6,7.8c-1.2,11.7-3.3,15.8-1,23.9c5.8-5.1,8.6-10.1,8.6-10.1s-0.1-11.4,6.5-21
			c-3.5-6.7-3.5-12.1-3.5-12.1c0.2-2.4,2.3-2.2,2.1,0.2c0,0,0.3,6.3,2.9,9.4c1.3-2.6,4.4-1,3.1,1.5c0,0-2.4,4-2.9,5.7
			c-0.4,1.7,8.3-3.9,8.3-3.9c1.9-1.5,3.4,0.4,1.5,1.9c0,0-7.8,4.1-9.6,4.5c-1.8,0.4-2.8,5.7-2.8,5.7c0.5-1,4.6,1.1,4,2.1
			c0,0,8.3-0.6,12.3-4.2c1-5.6,4.4-11.1,4.4-11.1c1.1-1.6,2.8-0.4,1.7,1.2c0,0-3.3,5-3.3,8.8c2.8-2.6,3.3-3,3.3-3
			c3-2.6,5.7,0.6,2.7,3.1c0,0-9.4,7.9-19.6,9.5c-7.7,9-7.7,9-7.7,9s5.9,1.5,18.5-3.2c2.4,0.3,10-6.2,10-6.2c1.4-0.8,2.4,1,1,1.8
			l-7.8,5.5c0,0-0.3,1.9-2.1,2.8c5.8,5.3,7.1,6.9,7.1,6.9c0.8,1.4-1.1,2.5-1.9,1.2l-7.5-7.2c0,0-5.3,1.7-6.3,1.7
			c4.2,3.5,6.9,5.3,6.9,5.3c0.9,1.4-0.7,2.5-1.7,1.2c0,0-5.7-3.7-7.4-5.5l-11.5-0.4c0,0-11.5,10.8-18.5,13.6
			c3.6,8,10.1,21.8,10.1,21.8s8.5,2.3,11.4,4.8c9.5-7,21.4-6.8,21.4-6.8s3-3.6,4-9.8c0-1.2,2.1-1.2,2.1,0c0,0-0.7,7.7-3.5,9.9
			l0.8-0.1c2.1-0.3,2.6,2.8,0.5,3.1l-4.4,0.4c0,0,2.4,2.6,8.1,3.7c1.8,0.5,1.2,2.6-0.6,2.1c0,0-7.3-1.3-11-4.9c0,0-7.1,0.5-11.8,4.1
			c9,13.2,31.6,1.5,31.6,1.5s3.3-2.1,4.9-10.1c0.2-1.2,2.2-0.9,2.1,0.3c0,0-1,6.6-4.6,10.4c0.9,1.5-1.3,3.8-1.3,3.8s1.8,1.3,7.4,0.7
			c1.6,0,1.6,1.5,0,1.5c0,0-3.6,1.5-9.8-1.2c-4.7,2.6-15.2,3.7-15.2,3.7s3,1.1,3.3,3.8c0.3,2.7,12.3,6.5,22.1,6.4
			c2.1-0.3,2.6,3.2,0.6,3.5h-1.2c0,0,6.7,5.7,8,5.9c1,0.8-0.2,2.4-1.2,1.6c0,0-8.6-4.7-9.7-7.5c-3.3-0.1-6.5-0.5-6.5-0.5
			s-1.8,1.1-2.7,11.1c0,1.2-2.1,1.2-2.1,0c0,0-1-7.4,2.2-11.7c-9.5-0.4-23.1-11.8-23.1-11.8s-0.4,5.8,6.4,16.1c2,2.1-1,5.1-3.1,3
			c0,0-9.8-12.7-7.6-20.9c0,0-13.2-10.2-17.5-9.1c0,1.2,4.7,16.5,16.5,29.1c0.6,2.4,0.6,2.4,0.6,2.4s11.9,7.2,21.8,8.6
			c1.9,0.4,6.4-0.4,10.7,3.2c1.2,0.3,0.6,2.3-0.6,2c0,0-3.3-3-9.7-2.8c-0.6,1.4-7.7,0-7.7,0s-2.4,6.1-1.9,9.2
			c-0.2,1.7-2.4,1.5-2.2-0.2c0,0,0.2-7.6,2-9.4c-4.5-1.8-13.3-6.1-14.7-6.6c-3-1.2-1,20.5-1,20.5l8.5,6.2c1.6,1,0.2,3-1.3,2
			l-7.9-6.4c0,0-3.4,1.6-4.1-5.5c-1.1-12.2,0.9-19.9,0.9-19.9s-12.9-19-13.4-22.8c-0.7,8-2.6,13-2.6,13s6.2,11.9,5.9,23.1
			c0.1,2.3-3.8,2.4-3.9,0.1c0,0,0.2-8.3-3.1-16.7c-4.3,7.1-4.9,12.6-4.9,12.6s4.3,12.2,8.6,17c1.6,1.8-1.2,4.2-2.7,2.4
			c0,0-3.1-3.8-3.1-4.8c0-1-2.5,4.3-2.1,10.4c0,1.3-1.9,1.3-1.9,0c0,0-0.4-8.9,2.4-12.6c-3.6-5-5.9-17.6-5.9-17.6s0.6-6.2,3.9-14.2
			c3.3-8.1,1.5-26.3,1.5-26.3s-13.6-36.2-27.1-43.5c-13.6,7.3-27.1,43.5-27.1,43.5s-1.8,18.2,1.5,26.3c3.3,8.1,3.9,14.2,3.9,14.2
			s-2.3,12.7-5.9,17.6c2.8,3.7,2.4,12.6,2.4,12.6c0,1.3-1.9,1.3-1.9,0c0.4-6.2-2-11.5-2.1-10.4c0,1-3.1,4.8-3.1,4.8
			c-1.6,1.8-4.3-0.7-2.7-2.4c4.3-4.8,8.6-17,8.6-17s-0.6-5.5-4.9-12.6c-3.3,8.5-3.1,16.7-3.1,16.7c-0.1,2.3-3.9,2.2-3.9-0.1
			c-0.3-11.2,5.9-23.1,5.9-23.1s-1.9-5.1-2.6-13c-0.5,3.8-13.4,22.8-13.4,22.8s2,7.7,0.9,19.9c-0.7,7.2-4.1,5.5-4.1,5.5l-7.9,6.4
			c-1.6,1-2.9-1-1.3-2l8.5-6.2c0,0,1.9-21.7-1-20.5c-1.3,0.5-10.1,4.9-14.7,6.6c1.8,1.9,2,9.4,2,9.4c0.2,1.7-2.1,1.9-2.2,0.2
			c0.5-3.1-1.9-9.2-1.9-9.2s-7.1,1.4-7.7,0c-6.4-0.1-9.7,2.8-9.7,2.8c-1.2,0.3-1.7-1.6-0.6-2c4.3-3.5,8.9-2.8,10.7-3.2
			c9.9-1.5,21.8-8.6,21.8-8.6s0,0,0.6-2.4c11.9-12.6,16.5-27.9,16.5-29.1c-4.3-1.1-17.5,9.1-17.5,9.1c2.2,8.2-7.6,20.9-7.6,20.9
			c-2,2.1-5.1-1-3.1-3c6.8-10.3,6.4-16.1,6.4-16.1s-13.6,11.4-23.1,11.8c3.2,4.3,2.2,11.7,2.2,11.7c0,1.2-2.1,1.2-2.1,0
			c-0.9-10-2.7-11.1-2.7-11.1s-3.2,0.4-6.5,0.5c-1.1,2.7-9.7,7.5-9.7,7.5c-1,0.8-2.3-0.8-1.2-1.6c1.4-0.2,8-5.9,8-5.9h-1.2
			c-2.1-0.3-1.5-3.8,0.6-3.5c9.7,0,21.8-3.7,22.1-6.4c0.3-2.7,3.3-3.8,3.3-3.8s-10.5-1.1-15.2-3.7c-6.2,2.7-9.8,1.2-9.8,1.2
			c-1.6,0-1.6-1.5,0-1.5c5.6,0.6,7.4-0.7,7.4-0.7s-2.2-2.2-1.3-3.8c-3.6-3.7-4.6-10.4-4.6-10.4c-0.2-1.2,1.9-1.5,2.1-0.3
			c1.5,8,4.9,10.1,4.9,10.1s22.6,11.7,31.6-1.5c-4.7-3.6-11.8-4.1-11.8-4.1c-3.7,3.6-11,4.9-11,4.9c-1.8,0.5-2.4-1.6-0.6-2.1
			c5.7-1.1,8.1-3.7,8.1-3.7l-4.4-0.4c-2.1-0.3-1.6-3.5,0.5-3.1l0.8,0.1c-2.9-2.2-3.5-9.9-3.5-9.9c0-1.2,2-1.3,2.1,0
			c1,6.2,4,9.8,4,9.8s11.9-0.3,21.4,6.8c2.9-2.5,11.4-4.8,11.4-4.8s6.5-13.8,10.1-21.8c-7-2.8-18.5-13.6-18.5-13.6l-11.5,0.4
			c-1.7,1.8-7.4,5.5-7.4,5.5c-0.9,1.4-2.6,0.2-1.7-1.2c0,0,2.7-1.8,6.9-5.3c-1-0.1-6.3-1.7-6.3-1.7l-7.5,7.2
			c-0.8,1.4-2.7,0.2-1.9-1.2c0,0,1.3-1.7,7.1-6.9c-1.8-0.9-2.1-2.8-2.1-2.8l-7.8-5.5c-1.4-0.8-0.4-2.6,1-1.8c0,0,7.6,6.4,10,6.2
			c12.6,4.7,18.5,3.2,18.5,3.2s0,0-7.7-9c-10.2-1.6-19.6-9.5-19.6-9.5c-3-2.6-0.3-5.7,2.7-3.1c0,0,0.6,0.4,3.3,3
			c0-3.8-3.3-8.8-3.3-8.8c-1.1-1.6,0.6-2.8,1.7-1.2c0,0,3.4,5.5,4.4,11.1c4,3.6,12.3,4.2,12.3,4.2c-0.5-1,3.5-3.2,4-2.1
			c0,0-1-5.3-2.8-5.7c-1.8-0.4-9.6-4.5-9.6-4.5c-1.9-1.5-0.3-3.4,1.5-1.9c0,0,8.7,5.6,8.3,3.9c-0.4-1.7-2.9-5.7-2.9-5.7
			c-1.3-2.6,1.8-4.1,3.1-1.5c2.6-3.1,2.9-9.4,2.9-9.4c-0.2-2.4,1.9-2.6,2.1-0.2c0,0,0.1,5.4-3.5,12.1c6.7,9.6,6.5,21,6.5,21
			s2.8,5,8.6,10.1c2.3-8.1,0.1-12.2-1-23.9c7.4-15.1,8.1-8.8,7.6-7.8c0,0-1.9,3.1-5.4,8.6c3.6,10.3,2.1,24.6,2.1,24.6
			s0.6,0.8,10.8,6.3c6-14.2,17.1-21.2,17.1-21.2v-72.2C248.5,96.1,261.5,96.1,261.5,105.2z"/>
	</g>
</g>
</svg>
