<?xml version="1.0" encoding="utf-8"?>
<!-- Generator: Adobe Illustrator 26.0.1, SVG Export Plug-In . SVG Version: 6.00 Build 0)  -->
<svg version="1.1" xmlns="http://www.w3.org/2000/svg" xmlns:xlink="http://www.w3.org/1999/xlink" x="0px" y="0px"
	 viewBox="0 0 510 510" style="enable-background:new 0 0 510 510;" xml:space="preserve">
<style type="text/css">
	.st0{fill:#C3E5F0;}
	.st1{display:none;}
	.st2{display:inline;}
	.st3{fill:#F7A797;}
	.st4{fill:#FFE999;}
	.st5{fill:#231F20;}
	.st6{fill:#FFD482;}
	.st7{fill:#FFFFFF;}
</style>
<g id="Layer_1">
	<g>
		<circle class="st0" cx="255" cy="255" r="225"/>
	</g>
	<g class="st1">
		<g class="st2">
			<path class="st3" d="M436.3,79.7c-36.6-37.8-84.8-63.9-136.7-73.1c-53-9.4-108.1-1.9-156.5,21.8C96.5,51.3,57.2,89.1,32.5,134.8
				C7.4,181.2-2.6,235.2,4.2,287.6c5.9,44.9,23.7,87.3,51.5,123c27.4,35.1,63.9,62.3,105.2,79c43,17.4,90.7,22,136.4,14.4
				c44.1-7.4,85.7-27,120-55.8c34.1-28.6,60.1-66.3,75.2-108.1c17.4-48.2,19.3-101.9,5.9-151.4c-3.7-13.7-8.7-27.1-14.7-40
				c-1.7-3.7-7-4.5-10.3-2.7c-3.8,2.2-4.4,6.6-2.7,10.3c39.5,86.3,22.7,190.7-41.8,260.1c-58.9,63.4-149.6,90.3-233.5,68.7
				c-81.5-21-147.4-85.7-169.8-166.9c-12.7-46.3-11-96,4.7-141.4C46.5,130,77.8,88.7,118.4,60.4c41.3-28.8,90.9-43.8,141.2-42.8
				c50.3,1,99.5,18.3,139.5,48.8c9.5,7.3,18.4,15.3,26.7,23.9C432.4,97.2,443,86.6,436.3,79.7L436.3,79.7z"/>
		</g>
	</g>
</g>
<g id="Layer_2">
	<g>
		<path class="st4" d="M249.4,239.5c-22.5,0.7-44.9,5.1-66,13.3h0v209.6c22.6,7.6,46.8,11.8,72,11.8s49.4-4.1,72-11.8V252.8h0
			C302.5,243.1,275.9,238.7,249.4,239.5z"/>
		<g>
			<path class="st4" d="M249.4,233.5c-11.5,0.4-22.9,1.7-34.2,3.9c-5.5,1.1-11,2.4-16.5,4c-2.7,0.8-5.4,1.6-8.1,2.5
				c-1.2,0.4-2.4,0.8-3.6,1.2c-0.1,0.1-3.7,1.8-3.7,1.8c-3.2,0-6,2.7-6,6c0,23.6,0,47.3,0,70.9c0,37.6,0,75.3,0,112.9
				c0,8.6,0,17.2,0,25.8c0,2.8,1.9,4.9,4.4,5.8c47.6,15.8,99.6,15.8,147.2,0c2.5-0.8,4.4-3,4.4-5.8c0-23.6,0-47.3,0-70.9
				c0-37.6,0-75.3,0-112.9c0-8.6,0-17.2,0-25.8c0-3.2-2.7-6-6-6c0,0-3.5-1.7-3.6-1.7c-1.5-0.5-2.9-1-4.4-1.5c-3.2-1.1-6.5-2-9.8-2.9
				c-6.6-1.8-13.2-3.2-19.9-4.3C276.4,234.1,262.9,233.1,249.4,233.5c-7.7,0.2-7.7,12.2,0,12c13.6-0.3,27.3,0.5,40.7,3
				c6.7,1.2,13.3,2.8,19.8,4.7c3,0.9,5.9,1.8,8.9,2.8c2.6,0.9,5.8,2.8,8.6,2.8c-2-2-4-4-6-6c0,23.6,0,47.3,0,70.9
				c0,37.6,0,75.3,0,112.9c0,8.6,0,17.2,0,25.8c1.5-1.9,2.9-3.9,4.4-5.8c-45.7,15.2-95.1,15.2-140.8,0c1.5,1.9,2.9,3.9,4.4,5.8
				c0-23.6,0-47.3,0-70.9c0-37.6,0-75.3,0-112.9c0-8.6,0-17.2,0-25.8c-2,2-4,4-6,6c4.4,0,9.8-3.2,14.1-4.6
				c5.7-1.8,11.5-3.3,17.3-4.5c11.4-2.5,23-3.8,34.7-4.2C257.1,245.2,257.2,233.2,249.4,233.5z"/>
		</g>
	</g>
	<path class="st5" d="M253.6,215h3.7c1.2,0,2.2,1,2.2,2.2v22c0,1.2-1,2.2-2.2,2.2h-3.7c-1.2,0-2.2-1-2.2-2.2v-22
		C251.4,216,252.4,215,253.6,215z"/>
	<g>
		<path class="st4" d="M255.2,224.3c0,0,27.3,1.5,17-32.1c-2.7-8.8-8-19.9-17-34.1C210.9,225.9,255.2,224.3,255.2,224.3z"/>
		<g>
			<path class="st6" d="M255.2,227.3c8.3,0.4,17-3.9,20.4-11.7c3.6-8.3,1.6-18.1-1.2-26.3c-3.9-11.6-10.1-22.4-16.6-32.7
				c-1.2-2-3.9-1.9-5.2,0c-10.1,15.5-37.6,62.3-3.6,70C251,227,253.1,227.4,255.2,227.3c3.9-0.1,3.9-6.1,0-6
				c-4.7,0.2-10.8-1.7-14-6.2c-3.6-5-3-12-1.7-17.7c3.1-13.6,10.8-26.2,18.3-37.8c-1.7,0-3.5,0-5.2,0c5.8,9.3,11.4,18.9,15.2,29.2
				c2.6,7.2,5.5,16.3,2.6,23.8c-2.3,6-9,9-15.2,8.7C251.3,221.1,251.4,227.1,255.2,227.3z"/>
		</g>
	</g>
	<g>
		<g>
			<path class="st6" d="M179.3,310.8c6.5,5.5,15.1,9.1,23.7,9.4c7.5,0.2,14.6-2.5,20.4-7.1c5.8-4.6,11-9.4,18.9-8
				c7,1.2,9.7,5.2,15.2,8.6c11.2,6.8,24.9,7,35.5-1.1c6.4-4.9,11.5-8.9,19.9-6.5c2.5,0.7,4.8,1.8,7,3.2c0.7,0.5,1.4,0.9,2.1,1.4
				c0.6,0.4-0.9-0.8-0.1,0c5.9,5,14.4-3.5,8.5-8.5c-6.6-5.6-15.7-9.4-24.4-8.9c-8.4,0.5-13.8,4.7-20.2,9.7
				c-5.3,4.1-11.7,4.9-17.9,2.6c-1.8-0.7-3.4-1.6-5-2.6c-0.5-0.3-1.1-0.7-1.6-1.1c0.1,0.1,1.1,0.8,0.5,0.4c-2.5-2.1-5-4.1-7.9-5.6
				c-5.2-2.6-11-4.2-16.8-3.7c-8.7,0.8-14.4,5.3-20.9,10.5c-5.9,4.7-12.9,5.7-19.9,3.4c-2.4-0.8-4.6-2-6.7-3.3
				c-0.7-0.4-1.4-0.9-2-1.4c-0.6-0.4,1,0.8,0.1,0.1C181.9,297.4,173.4,305.8,179.3,310.8L179.3,310.8z"/>
		</g>
	</g>
	<g>
		<g>
			<path class="st6" d="M277.6,343.7c-3.5,13.8-8.7,40.7,9.3,47.5c9.4,3.5,22-2.5,22.3-13.3c0.2-7.7-11.8-7.7-12,0
				c0,0.2,0.5-0.9-0.2,0.5c0.9-1.9-1.1,1.1,0.2-0.4c-0.4,0.4-1.7,1.6-0.5,0.7c-0.6,0.4-1.2,0.8-1.8,1.1c-1,0.5,0.7-0.3,0,0
				c-0.3,0.1-0.7,0.2-1,0.3c-1.6,0.4,0.7,0-1,0.1c-0.4,0-0.7,0-1.1,0c-0.8-0.1,1.5,0.3,0,0c-0.4-0.1-0.8-0.2-1.1-0.3
				c-0.8-0.4,1.3,0.6-0.1-0.1c-0.9-0.5-1.6-1.1-2.3-2.4c-0.9-1.5-1.5-3.5-1.8-5.8c-1.3-8.2,0.7-16.9,2.7-24.8
				C291,339.4,279.5,336.2,277.6,343.7L277.6,343.7z"/>
		</g>
	</g>
	<g>
		<g>
			<path class="st6" d="M220.8,398.3c2,7.8,3.9,16.3,2.8,24.3c-0.3,2.4-1,4.6-1.9,6.2c-0.7,1.2-1.4,1.9-2.3,2.4
				c-0.6,0.3-0.3,0.2,0.1,0c-0.4,0.2-0.9,0.3-1.3,0.4c-0.8,0.2-0.2,0.1,0.3,0c-0.4,0-0.9,0.1-1.3,0.1c-1.7-0.1,0.6,0.2-1-0.1
				c-1-0.2-1.2-0.4-0.8-0.2c-0.6-0.3-1.2-0.7-1.8-1.1c0.8,0.5-0.1,0.1-0.6-0.7c0.2,0.4-0.1-0.8-0.1-0.3c-0.2-7.7-12.2-7.7-12,0
				c0.3,10.8,12.9,16.8,22.3,13.3c18-6.7,12.7-33.7,9.3-47.5C230.5,387.7,218.9,390.8,220.8,398.3L220.8,398.3z"/>
		</g>
	</g>
</g>
<g id="Layer_3">
	<g>
		<g>
			<path class="st7" d="M430.9,145c-15.4,0-30.8,0-46.2,0c-8.3,0-16.7,0-25,0c-4.6,0-9.5,0.4-14.1-0.1c-5.8-0.6-13.7-6.1-13.4-12.5
				c0.5-7.5,7.6-14.2,14.5-16c7.1-1.8,15.4,1,19.2,7.5c3.9,6.7,14.3,0.6,10.4-6.1c-9.5-16.3-32.6-18.1-45.9-5.8
				c-6.4,5.9-11.4,15.9-9.6,24.7c1.7,8.6,8.5,14.3,16.1,17.9c6.3,2.9,13.3,2.2,20.1,2.2c4,0,8,0,12.1,0c10.2,0,20.4,0,30.6,0
				c10.5,0,20.9,0,31.4,0C438.6,157,438.6,145,430.9,145L430.9,145z"/>
		</g>
	</g>
	<g>
		<g>
			<path class="st7" d="M414.7,188.2c-15.5,0-31,0-46.5,0c-8.5,0-17.1,0-25.6,0c-4.6,0-9.4-0.3-14,0.1c-6.6,0.6-14.6,4.8-19.1,9.9
				c-6.5,7.4-7.2,18.6-1.8,26.8c3.6,5.5,9.6,8.3,15.1,11.5c6.7,3.9,12.7-6.5,6.1-10.4c-3.5-2-8.3-3.9-10.8-7.2
				c-4.2-5.5-1.5-12.3,3.9-15.5c4-2.4,7.4-3.2,12-3.2c4.6,0,9.2,0,13.8,0c14.6,0,29.2,0,43.8,0c7.7,0,15.4,0,23.1,0
				C422.4,200.2,422.4,188.2,414.7,188.2L414.7,188.2z"/>
		</g>
	</g>
	<g>
		<g>
			<path class="st7" d="M435.9,200.2c13.4,0,26.7,0,40.1,0c7.7,0,7.7-12,0-12c-13.4,0-26.7,0-40.1,0
				C428.1,188.2,428.1,200.2,435.9,200.2L435.9,200.2z"/>
		</g>
	</g>
	<g>
		<g>
			<path class="st7" d="M449.2,157c2.5,0,4.9,0,7.4,0c3.1,0,6.1-2.8,6-6c-0.1-3.3-2.6-6-6-6c-2.5,0-4.9,0-7.4,0c-3.1,0-6.1,2.8-6,6
				C443.4,154.3,445.8,157,449.2,157L449.2,157z"/>
		</g>
	</g>
	<g>
		<g>
			<path class="st7" d="M343.1,178.6c38.3,0,76.5,0,114.8,0c5.5,0,11.1,0,16.6,0c7.7,0,7.7-12,0-12c-38.3,0-76.5,0-114.8,0
				c-5.5,0-11.1,0-16.6,0C335.4,166.6,335.4,178.6,343.1,178.6L343.1,178.6z"/>
		</g>
	</g>
</g>
</svg>
