<?xml version="1.0" encoding="utf-8"?>
<!-- Generator: Adobe Illustrator 26.0.1, SVG Export Plug-In . SVG Version: 6.00 Build 0)  -->
<svg version="1.1" xmlns="http://www.w3.org/2000/svg" xmlns:xlink="http://www.w3.org/1999/xlink" x="0px" y="0px"
	 viewBox="0 0 510 510" style="enable-background:new 0 0 510 510;" xml:space="preserve">
<style type="text/css">
	.st0{fill:#FBD3CB;}
	.st1{display:none;}
	.st2{display:inline;}
	.st3{fill:#F7A797;}
	.st4{fill:#FFE999;}
</style>
<g id="Layer_1">
	<g>
		<circle class="st0" cx="255" cy="255" r="225"/>
	</g>
	<g class="st1">
		<g class="st2">
			<path class="st3" d="M436.3,79.7c-36.6-37.8-84.8-63.9-136.7-73.1c-53-9.4-108.1-1.9-156.5,21.8C96.5,51.3,57.2,89.1,32.5,134.8
				C7.4,181.2-2.6,235.2,4.2,287.6c5.9,44.9,23.7,87.3,51.5,123c27.4,35.1,63.9,62.3,105.2,79c43,17.4,90.7,22,136.4,14.4
				c44.1-7.4,85.7-27,120-55.8c34.1-28.6,60.1-66.3,75.2-108.1c17.4-48.2,19.3-101.9,5.9-151.4c-3.7-13.7-8.7-27.1-14.7-40
				c-1.7-3.7-7-4.5-10.3-2.7c-3.8,2.2-4.4,6.6-2.7,10.3c39.5,86.3,22.7,190.7-41.8,260.1c-58.9,63.4-149.6,90.3-233.5,68.7
				c-81.5-21-147.4-85.7-169.8-166.9c-12.7-46.3-11-96,4.7-141.4C46.5,130,77.8,88.7,118.4,60.4c41.3-28.8,90.9-43.8,141.2-42.8
				c50.3,1,99.5,18.3,139.5,48.8c9.5,7.3,18.4,15.3,26.7,23.9C432.4,97.2,443,86.6,436.3,79.7L436.3,79.7z"/>
		</g>
	</g>
</g>
<g id="Layer_2">
	<g>
		<g>
			<path class="st3" d="M255,264c-13.5,2.6-34.6-3.2-39.4-4.5c-0.7-0.2-1.3-0.6-1.8-1.1c-3.2-3.7,0.8-3.5,0.8-3.5s17.8,4.8,20.5,1.4
				c-3.2-0.4-20.6-2.4-24.2-6.2c-3.7-3.8,4.8-2,4.8-2s21.6,4.2,22.8,2.5c-3.1,0.4-19.7-2.4-27.3-7.7c-4.7-3.6,2-2.9,2-2.9
				s27.1,6.6,27.6,3.9c-3.1,0.4-15.8-2.3-24.6-7.3c-5.7-5,4-2.9,4-2.9s23.4,6.7,23.4,4.1s-14.1-9.7-11.8-13.1
				c2.3-3.4,11.4,3.7,11.4,3.7s4.8,3,16.8,11.5c16.4,1,54.2-6.5,82.1-14.9c16.8-5,50-39.5,62.1-52.5c-5.1-7.6-11.5-14.8-19.4-21.4
				c-72-60.7-129.8,50.5-129.8,50.5s-57.8-111.3-129.8-50.5c-10.1,8.5-17.8,17.9-23.3,27.9c7.5,14.1,21.9,38.5,34.4,46.8
				c24.3,16,96.2,60.4,112.3,64.3c13.9-4.7,19.4-6.1,19.4-6.1s10.8-4.2,12-0.3c1.2,4-14.3,6.7-15.1,9.2c-0.7,2.4,23.6,2.8,23.6,2.8
				s9.8,0.8,3,4c-9.9,2.2-22.8,1.2-25.7-0.1c-0.3,2.7,27.5,4.2,27.5,4.2s6.6,1.3,1.1,3.3c-8.9,2.8-25.5,0.8-28.4-0.5
				c0.7,1.9,22.6,4.2,22.6,4.2s8.6,0.7,4,3.3s-21.8-0.6-25-1.1c1.7,4,20,4.6,20,4.6s3.9,1-0.2,3.6c-0.6,0.4-1.3,0.6-2,0.6
				c-5-0.1-26.9-0.7-39.1-7c-13.8-7.2-135.4-53.5-142-59.2c-2.7-2.4-5.3-5-7.7-7.9c6,17.2,17.1,33.9,32.8,48.5
				c12.7,11.9,25.1,22.6,34,31.5l91.5,68.8l91.5-68.8c8.9-8.9,21.3-19.6,34-31.5c26.5-24.7,39.9-55.1,37.6-84.2
				c-11.7,11.1-30.4,25.9-43.2,33.4C354.5,257,270.4,261.1,255,264z"/>
		</g>
		<path class="st4" d="M104.4,255.4c6.6,5.7,128.1,52,142,59.2c12.2,6.4,34.1,7,39.1,7c0.7,0,1.4-0.2,2-0.6c4.1-2.6,0.2-3.6,0.2-3.6
			s-18.4-0.6-20-4.6c3.2,0.5,20.4,3.6,25,1.1s-4-3.3-4-3.3s-21.9-2.2-22.6-4.2c2.9,1.3,19.5,3.4,28.4,0.5c5.5-2.1-1.1-3.3-1.1-3.3
			s-27.8-1.5-27.5-4.2c2.9,1.3,15.8,2.3,25.7,0.1c6.9-3.2-3-4-3-4s-24.4-0.3-23.6-2.8c0.7-2.4,16.3-5.2,15.1-9.2
			c-1.2-4-12,0.3-12,0.3s-5.5,1.5-19.4,6.1c-16-3.8-88-48.3-112.3-64.3c-12.6-8.3-26.9-32.8-34.4-46.8
			c-11.9,21.5-13.1,45.5-5.2,68.5C99.2,250.4,101.7,253.1,104.4,255.4z"/>
		<path class="st4" d="M342.1,225c-27.8,8.3-65.6,15.8-82.1,14.9c-12-8.5-16.8-11.5-16.8-11.5s-9.1-7.2-11.4-3.7
			c-2.3,3.4,11.8,10.6,11.8,13.1s-23.4-4.1-23.4-4.1s-9.7-2.1-4,2.9c8.9,5,21.5,7.7,24.6,7.3c-0.4,2.7-27.6-3.9-27.6-3.9
			s-6.7-0.7-2,2.9c7.7,5.2,24.2,8.1,27.3,7.7c-1.2,1.7-22.8-2.5-22.8-2.5s-8.4-1.8-4.8,2c3.7,3.8,21,5.7,24.2,6.2
			c-2.8,3.3-20.5-1.4-20.5-1.4s-4.1-0.2-0.8,3.5c0.5,0.5,1.1,0.9,1.8,1.1c4.8,1.4,25.9,7.1,39.4,4.5c15.3-2.9,99.5-7,119.8-18.8
			c12.9-7.5,31.6-22.2,43.2-33.4c-1.1-13.6-5.6-26.9-13.9-39.3C392.1,185.5,358.8,220,342.1,225z"/>
	</g>
</g>
</svg>
