<?xml version="1.0" encoding="utf-8"?>
<!-- Generator: Adobe Illustrator 26.0.1, SVG Export Plug-In . SVG Version: 6.00 Build 0)  -->
<svg version="1.1" xmlns="http://www.w3.org/2000/svg" xmlns:xlink="http://www.w3.org/1999/xlink" x="0px" y="0px"
	 viewBox="0 0 510 510" style="enable-background:new 0 0 510 510;" xml:space="preserve">
<style type="text/css">
	.st0{fill:#FBD3CB;}
	.st1{fill:#F7A797;}
	.st2{fill:#FFFFFF;}
	.st3{display:none;}
	.st4{display:inline;}
	.st5{fill:#FEFCF9;}
</style>
<g id="Layer_1">
	<g>
		<circle class="st0" cx="255" cy="255" r="225"/>
	</g>
</g>
<g id="Layer_2">
	<g>
		<path class="st1" d="M228.2,405.8c0,0,10.6,13.4,31.5,22.3c0,0,119.2-47.1,160.3-169.2c19.7-58.4,1.1-98.6-16.7-121.3
			c-12.1-15.4-29-26.1-47.9-30.8c-32.7-8.2-87.1-10.2-93.4,63.4c-3,54-31.3,253.4-31.3,253.4"/>
		<g>
			<path class="st1" d="M223.9,410.1c3,3.8,6.8,7,10.6,10c3.7,2.9,7.5,5.6,11.6,8c3.9,2.3,10.4,6.9,15.1,5.9c3.6-0.8,7.7-3.3,11-4.9
				c20.3-9.8,39.4-22.2,57.2-36.1c27.4-21.4,51.5-47.2,70-76.8c23.3-37.2,40.4-82.4,33.1-126.8c-6.2-37.4-30.4-72.3-66.7-85.5
				c-23.6-8.6-54.1-11-76.5,1.9c-13.5,7.8-22.6,20.8-27.7,35.4c-4.9,13.9-5.5,28.4-6.8,43c-2.4,27.9-5.9,55.8-9.4,83.6
				c-6.3,50.6-13.2,101.1-20.3,151.5c-0.1,0.9-0.3,1.8-0.4,2.8c-0.5,3.2,0.8,6.4,4.2,7.4c2.8,0.8,6.9-1,7.4-4.2
				c5.4-38.2,10.6-76.5,15.6-114.8c3.8-29.2,7.6-58.5,10.9-87.8c1.3-11.6,2.6-23.2,3.6-34.8c1.1-12.1,1.4-24.3,4.5-36.2
				c3.3-12.8,9.6-25.4,20.7-33.1c9.2-6.5,20.3-9.2,31.4-9.5c30.3-0.9,60.6,11.2,78.4,36.3c45.3,63.6,7.9,146.7-37.9,199
				c-28.8,32.8-65,59.8-104.8,77.7c-1.9,0.8,1.2-0.5-0.8,0.3c1.5,0.2,3.1,0.4,4.6,0.6c-11.1-4.9-22.6-11.8-30.3-21.4
				C227.6,395.6,219.1,404.1,223.9,410.1L223.9,410.1z"/>
		</g>
	</g>
	<g>
		<path class="st0" d="M266.9,136.4v256.4c0,0-4.4,22.9-22.3,35.3c-6.7,4.6-15.3,7.8-26.3,7.8c-55.5,0-63.7-39.3-63.7-39.3
			s-49.3,2.7-49.3-47.3c-32,0-52-60.7-14-74c-27.3-6.3-32-55.3-0.7-68c-16-36,20.7-56.7,42-46.7c-11.3-35.3,23.3-56,45.3-40
			C182.9,89.8,250,78.2,266.9,136.4z"/>
		<g>
			<path class="st1" d="M260.9,136.4c0,15.6,0,31.2,0,46.8c0,33.1,0,66.2,0,99.3c0,29.4,0,58.8,0,88.2c0,6.9-0.2,13.7,0,20.6
				c0,0.5-0.1,0.9,0,1.4c0-0.1,0.6-2.1,0.1-1.1c-0.4,0.9-0.5,2.1-0.8,3c-2.6,8.9-7.1,17.5-13.8,24.1c-16.8,16.6-47.5,13.5-66.4,1.7
				c-5.6-3.5-10.5-8.2-14-13.4c-1.4-2.1-2.6-4.3-3.7-6.5c-0.8-1.7,0,0.2-0.7-1.6c-0.3-0.7-0.5-1.4-0.7-2.2c-0.2-0.6-0.3-1.1-0.5-1.7
				c-0.5-2.4-3.3-4.5-5.8-4.4c-7.5,0.4-13.8-0.8-20.9-3.8c-15.7-6.5-22.2-21.2-22.4-37.5c0-3.3-2.7-5.9-6-6
				c-14.4-0.3-24-14.5-27.3-27.1c-3.7-14.1,0.2-29.7,14.9-35.1c5.2-1.9,6.1-10,0-11.6c-11.7-3-17.6-15-17.9-26.3
				c-0.5-13.5,6.1-25.4,18.7-30.7c3.2-1.4,3.3-5.6,2.2-8.2c-5-11.6-4.1-24.8,6.1-33.3c7.3-6.1,18.8-9.1,27.7-5.1
				c4.5,2,10.5-1.3,8.8-6.8c-3.5-11.6-2.4-24.9,7.8-32.8c8.6-6.6,19.9-6.6,28.7-0.5c3,2.1,8.2,0.1,8.8-3.6
				c2.6-14.8,19.9-21.5,34.2-21.1c21.9,0.6,37.2,16.9,43.2,36.9c2.2,7.4,13.8,4.2,11.6-3.2c-6-20-19.4-37.2-40-43.4
				c-15.4-4.6-33.8-2.5-47,7.2c-6.7,5-12.1,12-13.5,20.4c2.9-1.2,5.9-2.4,8.8-3.6c-12.5-8.8-29.5-8.1-41.6,1.1
				c-14.3,10.8-17.6,29.1-12.5,45.7c2.9-2.3,5.9-4.5,8.8-6.8c-14.1-6.3-30.7-3-42.3,7c-14.4,12.4-15,31.3-7.9,47.9
				c0.7-2.7,1.4-5.5,2.2-8.2c-16.5,7-25.6,24.5-24.6,42.1c0.9,16.3,10,32.7,26.7,36.9c0-3.9,0-7.7,0-11.6
				c-20.7,7.6-28.6,28.3-23.6,48.9c4.4,18.3,19,36.5,39.1,36.9c-2-2-4-4-6-6c0.2,19.7,8.4,38.5,26.9,47.3c8.6,4.1,18.8,6.5,28.4,6.1
				c-1.9-1.5-3.9-2.9-5.8-4.4c1.8,8.6,7.4,16.9,13.4,23.2c14.8,15.5,37.8,21.5,58.8,20.5c25.4-1.3,43.8-20.1,50.7-43.7
				c1.4-4.8,1.2-9.3,1.2-14.2c0-26.7,0-53.3,0-80c0-35.3,0-70.5,0-105.8c0-20.2,0.7-40.6,0-60.9c0-0.3,0-0.6,0-0.9
				C272.9,128.7,260.9,128.7,260.9,136.4z"/>
		</g>
	</g>
	<g>
		<g>
			<path class="st2" d="M224.3,309.6c0.4,18.7,13.7,34.8,33.2,34.8c19.5,0,32.8-16.1,33.2-34.8c0.1-7.2-11.1-7.2-11.2,0
				c-0.3,12.7-8.7,23.6-22,23.6c-13.3,0-21.8-10.9-22-23.6C235.4,302.4,224.1,302.4,224.3,309.6L224.3,309.6z"/>
		</g>
	</g>
	<g class="st3">
		<g class="st4">
			<path class="st1" d="M208.5,300.3c0.1,13.1,4.1,26.2,13.9,35.4c8.5,8,19.8,11.9,31.3,12.1c7.2,0.1,7.2-11.1,0-11.2
				c-8.6-0.1-17.1-2.9-23.4-8.8c-7.7-7.2-10.5-17.2-10.6-27.5C219.7,293.1,208.5,293.1,208.5,300.3L208.5,300.3z"/>
		</g>
	</g>
	<g>
		<g>
			<path class="st1" d="M120.3,164.3c0.6,0,1.2,0.1,1.8,0.2c0.3,0,1.5,0.2-0.1,0c0.4,0.1,0.8,0.1,1.3,0.2c0.8,0.1,1.6,0.3,2.5,0.4
				c4.6,0.9,9.2,2.3,13.3,4.5c12.7,6.8,13.6,18.7,8.8,31.3c-2.6,6.7,8.2,9.7,10.8,3c6.3-16.3,3.6-33.4-12-42.9
				c-7.7-4.7-17.3-7.3-26.3-7.9C113.1,152.6,113.1,163.8,120.3,164.3L120.3,164.3z"/>
		</g>
	</g>
	<g>
		<g>
			<path class="st1" d="M198.3,156.2c4.2-15.2-1.7-31.9-16.1-39.1c-6.4-3.2-12.1,6.5-5.7,9.7c10.4,5.1,13.8,16.5,11,26.4
				C185.5,160.1,196.4,163.1,198.3,156.2L198.3,156.2z"/>
		</g>
	</g>
	<g>
		<g>
			<path class="st1" d="M105.2,354.8c15.8,0.6,30.6-9.2,34.2-24.8c1.6-7-9.2-10-10.8-3c-2.6,11.3-12.9,17-23.3,16.6
				C98,343.3,98,354.5,105.2,354.8L105.2,354.8z"/>
		</g>
	</g>
	<g>
		<g>
			<path class="st1" d="M156.5,401.9c15.8,0.6,30.6-9.2,34.2-24.8c1.6-7-9.2-10-10.8-3c-2.6,11.3-12.9,17-23.3,16.6
				C149.3,390.4,149.3,401.6,156.5,401.9L156.5,401.9z"/>
		</g>
	</g>
	<g>
		<g>
			<path class="st1" d="M269.5,198.4c-10.7-11.8-27.9-15.2-41.7-6.9c-6.2,3.7-0.5,13.4,5.7,9.7c9.6-5.8,20.8-3,28.1,5.1
				C266.5,211.6,274.4,203.7,269.5,198.4L269.5,198.4z"/>
		</g>
	</g>
	<g>
		<g>
			<path class="st5" d="M153.8,274.5c-1.7-14.5,1.2-31.8,16.9-36.4c11.5-3.4,25.4,1.3,32.5,11.5c5,7.2,6.1,16.1,4.6,24.6
				c-1.2,7.1,9.6,10.1,10.8,3c3.4-19.2-3.9-38.9-22.4-47.3c-16-7.3-35.8-4.6-46.6,10c-7.3,9.9-8.5,22.8-7.1,34.6
				C143.5,281.6,154.7,281.7,153.8,274.5L153.8,274.5z"/>
		</g>
	</g>
	<g>
		<g>
			<path class="st5" d="M373.4,274.5c2.4-19.6-4.4-41.1-25.2-47.2c-16.8-4.9-35.8,2.6-45.4,17c-6.5,9.7-7.6,21.6-5.6,32.9
				c1.3,7.1,12.1,4.1,10.8-3c-2.5-14.4,3.4-28.7,17.2-34.7c10.8-4.7,24.6-3.1,32,6.9c5.9,8,6.1,18.6,4.9,28.1
				C361.3,281.6,372.6,281.6,373.4,274.5L373.4,274.5z"/>
		</g>
	</g>
	<g>
		<polygon class="st0" points="378.3,147 377.6,157.1 387,160.9 377.1,163.3 376.4,173.5 371,164.9 361.2,167.3 367.7,159.5 
			362.3,150.9 371.7,154.7 		"/>
		<g>
			<path class="st0" d="M372.3,147c-0.2,3.4-0.5,6.7-0.7,10.1c-0.2,2.8,2.1,4.8,4.4,5.8c3.1,1.3,6.3,2.5,9.4,3.8c0-3.9,0-7.7,0-11.6
				c-3.3,0.8-6.6,1.6-9.8,2.5c-2.7,0.7-4.2,3.2-4.4,5.8c-0.2,3.4-0.5,6.7-0.7,10.1c3.7-1,7.5-2,11.2-3c-1.8-2.9-3.6-5.7-5.4-8.6
				c-1.4-2.3-4.1-3.4-6.8-2.8c-3.3,0.8-6.6,1.6-9.8,2.5c1.9,3.3,3.9,6.7,5.8,10c2.2-2.6,4.3-5.2,6.5-7.8c1.7-2,2.4-4.9,0.9-7.3
				c-1.8-2.9-3.6-5.7-5.4-8.6c-2.3,2.9-4.5,5.9-6.8,8.8c3.1,1.3,6.3,2.5,9.4,3.8c1.8,0.7,4.6-0.1,5.8-1.5c2.2-2.6,4.3-5.2,6.5-7.8
				c4.9-5.9-3.5-14.4-8.5-8.5c-2.2,2.6-4.3,5.2-6.5,7.8c1.9-0.5,3.9-1,5.8-1.5c-3.1-1.3-6.3-2.5-9.4-3.8c-5-2-9.4,4.7-6.8,8.8
				c1.8,2.9,3.6,5.7,5.4,8.6c0.3-2.4,0.6-4.8,0.9-7.3c-2.2,2.6-4.3,5.2-6.5,7.8c-3.8,4.5-0.3,11.6,5.8,10c3.3-0.8,6.6-1.6,9.8-2.5
				c-2.3-0.9-4.5-1.8-6.8-2.8c1.8,2.9,3.6,5.7,5.4,8.6c3.3,5.2,10.8,2.8,11.2-3c0.2-3.4,0.5-6.7,0.7-10.1c-1.5,1.9-2.9,3.9-4.4,5.8
				c3.3-0.8,6.6-1.6,9.8-2.5c6.3-1.6,5.1-9.5,0-11.6c-3.1-1.3-6.3-2.5-9.4-3.8c1.5,1.9,2.9,3.9,4.4,5.8c0.2-3.4,0.5-6.7,0.7-10.1
				C384.8,139.3,372.8,139.3,372.3,147z"/>
		</g>
	</g>
	<g>
		<polygon class="st0" points="396.2,173.5 396,177.3 399.6,178.8 395.8,179.7 395.5,183.6 393.5,180.3 389.7,181.2 392.2,178.3 
			390.2,175 393.8,176.4 		"/>
		<g>
			<path class="st0" d="M393.7,173.5c-0.1,1.3-0.2,2.6-0.3,3.9c-0.1,1.2,0.9,2,1.8,2.4c1.2,0.5,2.4,1,3.6,1.5c0-1.6,0-3.2,0-4.8
				c-1.3,0.3-2.5,0.6-3.8,0.9c-1.1,0.3-1.8,1.3-1.8,2.4c-0.1,1.3-0.2,2.6-0.3,3.9c1.6-0.4,3.1-0.8,4.7-1.3c-0.7-1.1-1.4-2.2-2.1-3.3
				c-0.6-1-1.7-1.4-2.8-1.1c-1.3,0.3-2.5,0.6-3.8,0.9c0.8,1.4,1.6,2.8,2.4,4.2c0.8-1,1.7-2,2.5-3c0.7-0.8,1-2,0.4-3
				c-0.7-1.1-1.4-2.2-2.1-3.3c-0.9,1.2-1.9,2.4-2.8,3.7c1.2,0.5,2.4,1,3.6,1.5c0.7,0.3,1.9,0,2.4-0.6c0.8-1,1.7-2,2.5-3
				c0.8-1,1.1-2.6,0-3.5c-0.9-0.9-2.6-1.1-3.5,0c-0.8,1-1.7,2-2.5,3c0.8-0.2,1.6-0.4,2.4-0.6c-1.2-0.5-2.4-1-3.6-1.5
				c-0.9-0.4-2.1,0.2-2.6,0.9c-0.6,0.8-0.7,1.9-0.2,2.8c0.7,1.1,1.4,2.2,2.1,3.3c0.1-1,0.3-2,0.4-3c-0.8,1-1.7,2-2.5,3
				c-0.7,0.8-1,2-0.4,3c0.6,1,1.7,1.4,2.8,1.1c1.3-0.3,2.5-0.6,3.8-0.9c-0.9-0.4-1.9-0.8-2.8-1.1c0.7,1.1,1.4,2.2,2.1,3.3
				c0.6,0.9,1.8,1.5,2.8,1.1c1.1-0.4,1.8-1.3,1.8-2.4c0.1-1.3,0.2-2.6,0.3-3.9c-0.6,0.8-1.2,1.6-1.8,2.4c1.3-0.3,2.5-0.6,3.8-0.9
				c1-0.3,1.9-1.3,1.8-2.4c-0.1-1.2-0.8-2-1.8-2.4c-1.2-0.5-2.4-1-3.6-1.5c0.6,0.8,1.2,1.6,1.8,2.4c0.1-1.3,0.2-2.6,0.3-3.9
				c0.1-1.3-1.2-2.6-2.5-2.5C394.8,171,393.8,172.1,393.7,173.5z"/>
		</g>
	</g>
</g>
</svg>
