<svg width="153" height="113" viewBox="0 0 153 113" fill="none" xmlns="http://www.w3.org/2000/svg">
<path d="M62.2422 1.41809C73.2766 3.08451 87.9432 27.1191 108.922 25.9101C129.901 24.7011 150.687 29.9285 152.352 58.647C154.017 87.3656 122.313 109.501 81.596 112.13C35.2594 115.122 -7.22125 91.2519 1.05925 49.9066C7.39003 18.2964 36.7493 -2.43188 62.2422 1.41809Z" fill="#B8F1E5"/>
<path d="M18.144 76C17.6 76 17.152 75.84 16.8 75.52C16.48 75.168 16.32 74.72 16.32 74.176V40.336C16.32 39.792 16.48 39.36 16.8 39.04C17.152 38.688 17.6 38.512 18.144 38.512C18.688 38.512 19.12 38.688 19.44 39.04C19.792 39.36 19.968 39.792 19.968 40.336V62.176L33.504 49.936C34.336 49.2 35.12 49.232 35.856 50.032C36.208 50.416 36.368 50.832 36.336 51.28C36.336 51.696 36.144 52.064 35.76 52.384L26.16 61.072L36.144 73.36C36.848 74.224 36.768 75.024 35.904 75.76C35.488 76.112 35.056 76.256 34.608 76.192C34.16 76.16 33.776 75.936 33.456 75.52L23.568 63.376L19.968 66.688V74.176C19.968 74.72 19.792 75.168 19.44 75.52C19.12 75.84 18.688 76 18.144 76ZM56.3261 76.24C53.8621 76.24 51.6541 75.664 49.7021 74.512C47.7501 73.328 46.1981 71.728 45.0461 69.712C43.9261 67.696 43.3661 65.424 43.3661 62.896C43.3661 60.336 43.9421 58.048 45.0941 56.032C46.2781 54.016 47.8781 52.432 49.8941 51.28C51.9101 50.096 54.1821 49.504 56.7101 49.504C59.2381 49.504 61.4941 50.096 63.4781 51.28C65.4941 52.432 67.0781 54.016 68.2301 56.032C69.4141 58.048 70.0221 60.336 70.0541 62.896V74.176C70.0541 74.72 69.8781 75.168 69.5261 75.52C69.1741 75.84 68.7261 76 68.1821 76C67.6381 76 67.1901 75.84 66.8381 75.52C66.4861 75.168 66.3101 74.72 66.3101 74.176V71.248C65.2221 72.784 63.8141 74 62.0861 74.896C60.3581 75.792 58.4381 76.24 56.3261 76.24ZM56.7101 72.88C58.5661 72.88 60.2141 72.448 61.6541 71.584C63.1261 70.72 64.2781 69.536 65.1101 68.032C65.9741 66.496 66.4061 64.784 66.4061 62.896C66.4061 60.976 65.9741 59.264 65.1101 57.76C64.2781 56.256 63.1261 55.072 61.6541 54.208C60.2141 53.312 58.5661 52.864 56.7101 52.864C54.8861 52.864 53.2381 53.312 51.7661 54.208C50.2941 55.072 49.1261 56.256 48.2621 57.76C47.3981 59.264 46.9661 60.976 46.9661 62.896C46.9661 64.784 47.3981 66.496 48.2621 68.032C49.1261 69.536 50.2941 70.72 51.7661 71.584C53.2381 72.448 54.8861 72.88 56.7101 72.88ZM86.2665 76C84.3465 76 82.7625 75.232 81.5145 73.696C80.2665 72.128 79.6425 70.128 79.6425 67.696V40.336C79.6425 39.792 79.8025 39.36 80.1225 39.04C80.4745 38.688 80.9225 38.512 81.4665 38.512C82.0105 38.512 82.4425 38.688 82.7625 39.04C83.1145 39.36 83.2905 39.792 83.2905 40.336V67.696C83.2905 69.072 83.5625 70.192 84.1065 71.056C84.6825 71.92 85.4025 72.352 86.2665 72.352H87.4665C87.9465 72.352 88.3305 72.528 88.6185 72.88C88.9065 73.2 89.0505 73.632 89.0505 74.176C89.0505 74.72 88.8425 75.168 88.4265 75.52C88.0425 75.84 87.5305 76 86.8905 76H86.2665ZM99.3814 76C98.8054 76 98.3414 75.84 97.9894 75.52C97.6694 75.168 97.5094 74.72 97.5094 74.176V51.616C97.5094 51.072 97.6694 50.624 97.9894 50.272C98.3414 49.92 98.8054 49.744 99.3814 49.744C99.9254 49.744 100.357 49.92 100.677 50.272C101.029 50.624 101.205 51.072 101.205 51.616V52.672C102.101 51.648 103.157 50.864 104.373 50.32C105.589 49.744 106.933 49.456 108.405 49.456C110.197 49.456 111.781 49.856 113.157 50.656C114.565 51.456 115.685 52.56 116.517 53.968C117.413 52.56 118.613 51.456 120.117 50.656C121.621 49.856 123.301 49.456 125.157 49.456C127.045 49.456 128.709 49.904 130.149 50.8C131.621 51.696 132.757 52.96 133.557 54.592C134.389 56.224 134.805 58.144 134.805 60.352V74.176C134.805 74.72 134.629 75.168 134.277 75.52C133.957 75.84 133.525 76 132.981 76C132.437 76 131.989 75.84 131.637 75.52C131.285 75.168 131.109 74.72 131.109 74.176V60.352C131.109 58.08 130.517 56.288 129.333 54.976C128.149 53.632 126.629 52.96 124.773 52.96C122.789 52.96 121.157 53.632 119.877 54.976C118.629 56.288 118.021 58.048 118.053 60.256V60.352V74.176C118.053 74.72 117.877 75.168 117.525 75.52C117.205 75.84 116.773 76 116.229 76C115.685 76 115.237 75.84 114.885 75.52C114.533 75.168 114.357 74.72 114.357 74.176V60.352C114.357 58.08 113.765 56.288 112.581 54.976C111.397 53.632 109.877 52.96 108.021 52.96C106.037 52.96 104.405 53.616 103.125 54.928C101.845 56.208 101.205 57.888 101.205 59.968V74.176C101.205 74.72 101.029 75.168 100.677 75.52C100.357 75.84 99.9254 76 99.3814 76Z" fill="black"/>
<path d="M16.9999 83H36.9999" stroke="black" stroke-width="3" stroke-linecap="round"/>
<path d="M46.9999 83L134 83" stroke="black" stroke-width="3" stroke-linecap="round"/>
</svg>
