<svg width="486" height="601" viewBox="0 0 486 601" fill="none" xmlns="http://www.w3.org/2000/svg">
<path d="M244.92 430.314C360.565 430.314 454.314 341.273 454.314 231.436C454.314 121.599 360.565 32.559 244.92 32.559C129.274 32.559 35.5254 121.599 35.5254 231.436C35.5254 341.273 129.274 430.314 244.92 430.314Z" fill="#FACDBF"/>
<path d="M352.851 436.129C288.883 441.175 152.07 440.537 97.4583 427.352C30.6772 411.22 7.41266 405.63 15.3223 308.143C-13.7019 137.122 78.1884 35.6256 208.194 11.619C264.305 1.26217 332.798 41.7865 227.663 66.0587C63.5369 103.901 76.8347 242.988 76.8347 242.988C152.348 207.589 255.426 244.422 255.426 244.422C255.426 244.422 249.958 185.667 280.496 146.085C282.181 146.085 312.718 146.085 327.98 179.174C368.697 168.99 377.694 164.674 412.611 174.646C412.611 174.646 427.329 137.627 444.661 133.883C460.507 161.461 501.436 280.631 451.363 341.245C451.363 341.245 484.09 385.938 454.309 409.706C424.529 433.473 352.851 436.182 352.851 436.182C352.851 436.182 397.243 431.004 394.735 406.161C395.319 372.82 358.464 382.845 326.308 365.437C326.308 365.437 382.937 388.156 417.734 364.561" fill="#5B6270"/>
<path d="M352.853 426.224C303.75 430.048 254.009 429.915 204.759 428.176C160.725 426.623 117.487 423.223 74.8997 411.459C70.8254 410.33 66.7512 409.135 62.7432 407.768C59.4478 406.698 56.2136 405.448 53.0552 404.023C46.048 400.717 41.8277 398.115 37.2491 393.308C33.4695 389.011 30.546 384.031 28.6361 378.636C25.9209 370.114 24.3936 361.258 24.0973 352.319C23.5369 339.036 23.8206 325.732 24.9467 312.485C25.4642 305.448 23.7124 298.517 22.81 291.519C21.8545 284.145 21.1334 276.754 20.6468 269.345C18.9082 243.227 20.0097 216.791 25.4642 191.138C34.7541 147.533 56.3332 107.792 89.5645 77.85C122.517 48.1737 164.441 30.3149 207.679 21.8701C224.879 18.2811 242.737 19.5406 259.264 25.5082C261.904 26.4862 264.438 27.7273 266.829 29.2128C267.599 29.6775 268.342 30.1688 269.072 30.6999C267.599 29.6244 268.766 30.4344 269.072 30.6999C269.669 31.2178 270.24 31.7754 270.824 32.3066C272.443 33.7671 271.328 32.7447 271.421 32.8377C271.79 33.2841 272.102 33.7747 272.35 34.2982C273 35.5597 271.368 33.9929 272.35 34.2982C272.483 34.6978 272.59 35.1059 272.668 35.5198C272.96 32.1605 272.137 34.9754 272.509 35.3738C273.319 36.2767 272.602 34.4709 272.509 34.9622C272.363 35.9314 271.54 36.4493 272.695 34.8559C272.27 35.4534 272.084 36.1837 271.593 36.8211C270.266 38.4277 272.761 35.6393 271.076 37.4319C265.396 43.4866 255.309 47.4966 246.497 50.4443C232.496 55.1048 217.911 57.694 203.817 62.1023C180.3 69.4716 157.367 80.001 137.606 94.806C92.8956 128.346 64.3491 183.529 66.7114 240.067C66.7114 241.05 66.791 242.032 66.8839 243.001C67.6271 250.968 74.6741 254.952 81.8671 251.606C116.558 235.672 157.142 235.141 194.341 240.399C214.009 243.174 234.022 247.357 252.735 254.035C258.495 256.08 265.9 250.623 265.342 244.435C262.449 212.502 269.589 176.904 289.045 151.118L280.458 156.057C281.029 155.957 281.613 155.957 282.184 156.057C282.717 156.157 283.26 156.198 283.803 156.177C285.78 156.31 281.573 155.752 283.989 156.177C287.648 156.779 291.24 157.739 294.712 159.045C306.072 163.626 314.075 173.146 319.357 184.14C321.268 188.124 326.576 189.73 330.597 188.721C344.32 185.282 358.294 180.635 372.428 179.254C385.315 178.006 397.644 180.728 409.92 184.193C415.533 185.773 420.165 182.228 422.169 177.249C422.926 175.363 421.559 178.577 421.983 177.674C422.594 176.346 423.204 174.912 423.841 173.558C425.713 169.574 427.743 165.671 429.959 161.886C433.941 155.088 439.78 145.368 447.212 143.443L435.971 138.862C446.336 157.12 452.68 178.922 457.749 200.326C464.597 229.179 468.499 260.289 463.058 289.713C460.125 305.647 454.498 321.381 444.186 334.088C441.612 337.262 439.9 342.387 442.633 346.158C452.494 359.715 464.319 384.253 450.981 399.004C442.275 408.644 427.464 413.106 415.388 416.491C402.26 420.09 388.873 422.665 375.348 424.193C367.837 425.069 360.285 425.813 352.721 426.105V446.022C374.247 443.486 404.107 433.819 404.77 407.994C405.222 390.613 396.808 378.038 380.71 371.931C364.612 365.823 346.894 364.973 331.327 356.794L323.656 374.998C353.809 386.948 394.419 391.622 422.753 373.099C433.436 366.115 423.47 348.867 412.707 355.904C388.686 371.599 354.313 365.863 328.952 355.785C318.454 351.602 311.394 368.797 321.281 373.989C335.176 381.292 350.04 384.292 365.076 388.037C375.905 390.692 384.439 393.215 384.731 405.298C384.85 410.384 384.731 411.831 381.347 415.097C378.086 417.866 374.367 420.046 370.358 421.537C366.046 423.178 361.607 424.466 357.087 425.388C355.561 425.706 354.021 425.959 352.482 426.251C350.571 426.622 350.292 426.53 352.827 426.251C347.518 426.901 342.873 430.367 342.873 436.209C342.873 441.441 347.439 446.38 352.827 446.168C376.077 445.367 399.152 441.824 421.572 435.612C436.807 431.283 454.047 425.109 465.155 413.238C476.913 400.691 478.745 383.482 474.564 367.363C471.637 356.188 466.689 345.644 459.966 336.253L458.413 348.309C500.032 297.003 487.371 219.075 467.199 161.422C463.323 150.374 459.063 139.168 453.264 128.957C452.133 127.084 450.428 125.626 448.403 124.801C446.377 123.975 444.14 123.826 442.023 124.376C421.89 129.554 410.172 154.371 403.019 172.097L415.268 165.139C401.386 161.236 386.974 158.129 372.482 159.483C356.463 160.997 340.896 165.763 325.355 169.667L336.596 174.235C326.696 153.588 304.904 135.556 280.857 136.22C272.655 136.446 267.917 146.311 264.294 152.671C259.966 160.384 256.41 168.505 253.677 176.917C249.109 191.281 246.366 206.163 245.515 221.212C244.911 228.942 244.911 236.706 245.515 244.435L258.11 234.822C237.42 227.466 215.35 223.204 193.638 220.362C152.616 215.051 109.909 216.91 71.8473 234.411L86.7908 242.988C86.459 238.769 86.4058 234.533 86.6315 230.308C86.8041 225.448 87.242 220.615 87.826 215.782C88.1179 213.259 87.4809 218.052 87.826 215.476C87.9056 214.972 87.9719 214.467 88.0516 213.962C88.3037 212.396 88.5426 210.816 88.8346 209.249C89.392 206.168 90.029 203.114 90.7456 200.06C98.3337 167.222 116.479 137.78 142.397 116.25C160.579 101.113 182.331 90.2915 204.666 82.816C230.147 74.3313 260.605 72.3131 281.998 54.5472C294.924 43.8053 295.574 26.9954 282.502 16.1074C268.554 4.50248 248.422 0.6917 230.771 0.0676352C208.21 -0.729043 184.972 5.6311 163.751 12.8809C141.559 20.2921 120.467 30.6626 101.044 43.7123C62.2111 70.0927 32.5308 107.894 16.108 151.888C7.05699 176.094 2.25278 201.826 0.607147 227.559C-0.244479 241.463 -0.20015 255.407 0.73986 269.305C1.78829 285.039 5.76967 300.96 4.72124 316.628C2.27933 354.058 2.06699 400.279 40.2617 419.851C57.2091 428.535 76.3994 432.611 94.7934 436.953C116.027 441.985 138.058 444.003 159.823 445.623C213.757 449.491 267.87 450.24 321.891 447.867C332.23 447.456 342.555 446.898 352.867 446.088C365.567 445.105 365.673 425.175 352.867 426.171L352.853 426.224Z" fill="#231F20"/>
<path d="M287.006 429.451C273.084 427.367 258.088 424.552 246.25 416.412C240.012 412.137 237.424 408.445 236.23 401.408C236.708 404.157 236.23 399.961 236.23 399.045C236.23 398.128 236.309 397.451 236.363 396.641C236.495 393.986 235.951 398.275 236.363 396.323C236.93 393.802 237.639 391.315 238.486 388.874C239.07 387.187 237.477 391.025 238.26 389.378C238.459 388.967 238.632 388.529 238.844 388.13L240.065 385.78C240.398 385.147 240.771 384.535 241.18 383.948C248.439 373.325 231.187 363.367 223.927 373.896C217.377 383.757 214.912 395.778 217.053 407.423C222.746 435.851 257.238 445.013 281.604 448.651C286.913 449.461 292.221 447.323 293.84 441.707C295.168 437.02 292.208 430.248 286.886 429.451H287.006Z" fill="#231F20"/>
<path d="M345.487 293.79C336.37 296.711 326.602 294.068 319.051 288.611C312.813 284.097 306.841 294.454 313.026 298.928C322.966 306.112 336.755 309.126 348.672 305.302C355.958 302.978 352.84 291.426 345.487 293.79Z" fill="#231F20"/>
<path d="M402.781 303.39C408.212 305.785 414.172 306.73 420.078 306.132C425.984 305.534 431.634 303.413 436.476 299.977C442.674 295.542 436.715 285.172 430.451 289.66C425.984 293.122 420.382 294.78 414.751 294.308C413.171 294.165 411.607 293.876 410.08 293.445C409.429 293.245 406.191 291.957 408.819 293.113C401.838 290.059 395.747 300.349 402.781 303.43V303.39Z" fill="#231F20"/>
<path d="M344.701 372.514C344.701 372.514 316.287 396.959 343.374 428.003C368.125 441.639 444.461 391.409 344.701 372.514Z" fill="white"/>
<path d="M228.496 9.95984C228.496 9.95984 200.082 34.4046 227.169 65.4485C251.92 79.085 328.256 28.8544 228.496 9.95984Z" fill="white"/>
<path d="M430.208 413.915C430.208 413.915 437.945 377.228 397.56 369.036C369.624 373.245 339.459 459.525 430.208 413.915Z" fill="white"/>
<path d="M303.084 199.264C303.084 199.264 295.679 158.633 283.628 156.243C261.505 163.414 263.456 246.188 263.456 246.188C274.338 212.993 303.084 199.264 303.084 199.264Z" fill="#FACDBF"/>
<path d="M428.18 187.393C428.18 187.393 436.501 155.181 446.507 154.198C463.468 161.886 468.538 230.693 468.538 230.693C458.505 202.756 428.18 187.393 428.18 187.393Z" fill="#FACDBF"/>
<path d="M297.838 322.006C303.944 322.006 308.893 317.054 308.893 310.945C308.893 304.836 303.944 299.885 297.838 299.885C291.733 299.885 286.783 304.836 286.783 310.945C286.783 317.054 291.733 322.006 297.838 322.006Z" fill="#FACDBF"/>
<path d="M450.314 318.951C456.419 318.951 461.369 313.999 461.369 307.891C461.369 301.782 456.419 296.83 450.314 296.83C444.208 296.83 439.259 301.782 439.259 307.891C439.259 313.999 444.208 318.951 450.314 318.951Z" fill="#FACDBF"/>
<path d="M352.853 426.224C303.75 430.048 254.009 429.915 204.759 428.176C160.725 426.623 117.487 423.223 74.8997 411.459C70.8254 410.33 66.7512 409.135 62.7432 407.768C59.4478 406.698 56.2136 405.448 53.0552 404.023C46.048 400.717 41.8277 398.115 37.2491 393.308C33.4695 389.011 30.546 384.031 28.6361 378.636C25.9209 370.114 24.3936 361.258 24.0973 352.319C23.5369 339.036 23.8206 325.732 24.9467 312.485C25.4642 305.448 23.7124 298.517 22.81 291.519C21.8545 284.145 21.1334 276.754 20.6468 269.345C18.9082 243.227 20.0097 216.791 25.4642 191.138C34.7541 147.533 56.3332 107.792 89.5645 77.85C122.517 48.1737 164.441 30.3149 207.679 21.8701C224.879 18.2811 242.737 19.5406 259.264 25.5082C261.904 26.4862 264.438 27.7273 266.829 29.2128C267.599 29.6775 268.342 30.1688 269.072 30.6999C267.599 29.6244 268.766 30.4344 269.072 30.6999C269.669 31.2178 270.24 31.7754 270.824 32.3066C272.443 33.7671 271.328 32.7447 271.421 32.8377C271.79 33.2841 272.102 33.7747 272.35 34.2982C273 35.5597 271.368 33.9929 272.35 34.2982C272.483 34.6978 272.59 35.1059 272.668 35.5198C272.96 32.1605 272.137 34.9754 272.509 35.3738C273.319 36.2767 272.602 34.4709 272.509 34.9622C272.363 35.9314 271.54 36.4493 272.695 34.8559C272.27 35.4534 272.084 36.1837 271.593 36.8211C270.266 38.4277 272.761 35.6393 271.076 37.4319C265.396 43.4866 255.309 47.4966 246.497 50.4443C232.496 55.1048 217.911 57.694 203.817 62.1023C180.3 69.4716 157.367 80.001 137.606 94.806C92.8956 128.346 64.3491 183.529 66.7114 240.067C66.7114 241.05 66.791 242.032 66.8839 243.001C67.6271 250.968 74.6741 254.952 81.8671 251.606C116.558 235.672 157.142 235.141 194.341 240.399C214.009 243.174 234.022 247.357 252.735 254.035C258.495 256.08 265.9 250.623 265.342 244.435C262.449 212.502 269.589 176.904 289.045 151.118L280.458 156.057C281.029 155.957 281.613 155.957 282.184 156.057C282.717 156.157 283.26 156.198 283.803 156.177C285.78 156.31 281.573 155.752 283.989 156.177C287.648 156.779 291.24 157.739 294.712 159.045C306.072 163.626 314.075 173.146 319.357 184.14C321.268 188.124 326.576 189.73 330.597 188.721C344.32 185.282 358.294 180.635 372.428 179.254C385.315 178.006 397.644 180.728 409.92 184.193C415.533 185.773 420.165 182.228 422.169 177.249C422.926 175.363 421.559 178.577 421.983 177.674C422.594 176.346 423.204 174.912 423.841 173.558C425.713 169.574 427.743 165.671 429.959 161.886C433.941 155.088 439.78 145.368 447.212 143.443L435.971 138.862C446.336 157.12 452.68 178.922 457.749 200.326C464.597 229.179 468.499 260.289 463.058 289.713C460.125 305.647 454.498 321.381 444.186 334.088C441.612 337.262 439.9 342.387 442.633 346.158C452.494 359.715 464.319 384.253 450.981 399.004C442.275 408.644 427.464 413.106 415.388 416.491C402.26 420.09 388.873 422.665 375.348 424.193C367.837 425.069 360.285 425.813 352.721 426.105V446.022C374.247 443.486 404.107 433.819 404.77 407.994C405.222 390.613 396.808 378.038 380.71 371.931C364.612 365.823 346.894 364.973 331.327 356.794L323.656 374.998C353.809 386.948 394.419 391.622 422.753 373.099C433.436 366.115 423.47 348.867 412.707 355.904C388.686 371.599 354.313 365.863 328.952 355.785C318.454 351.602 311.394 368.797 321.281 373.989C335.176 381.292 350.04 384.292 365.076 388.037C375.905 390.692 384.439 393.215 384.731 405.298C384.85 410.384 384.731 411.831 381.347 415.097C378.086 417.866 374.367 420.046 370.358 421.537C366.046 423.178 361.607 424.466 357.087 425.388C355.561 425.706 354.021 425.959 352.482 426.251C350.571 426.622 350.292 426.53 352.827 426.251C347.518 426.901 342.873 430.367 342.873 436.209C342.873 441.441 347.439 446.38 352.827 446.168C376.077 445.367 399.152 441.824 421.572 435.612C436.807 431.283 454.047 425.109 465.155 413.238C476.913 400.691 478.745 383.482 474.564 367.363C471.637 356.188 466.689 345.644 459.966 336.253L458.413 348.309C500.032 297.003 487.371 219.075 467.199 161.422C463.323 150.374 459.063 139.168 453.264 128.957C452.133 127.084 450.428 125.626 448.403 124.801C446.377 123.975 444.14 123.826 442.023 124.376C421.89 129.554 410.172 154.371 403.019 172.097L415.268 165.139C401.386 161.236 386.974 158.129 372.482 159.483C356.463 160.997 340.896 165.763 325.355 169.667L336.596 174.235C326.696 153.588 304.904 135.556 280.857 136.22C272.655 136.446 267.917 146.311 264.294 152.671C259.966 160.384 256.41 168.505 253.677 176.917C249.109 191.281 246.366 206.163 245.515 221.212C244.911 228.942 244.911 236.706 245.515 244.435L258.11 234.822C237.42 227.466 215.35 223.204 193.638 220.362C152.616 215.051 109.909 216.91 71.8473 234.411L86.7908 242.988C86.459 238.769 86.4058 234.533 86.6315 230.308C86.8041 225.448 87.242 220.615 87.826 215.782C88.1179 213.259 87.4809 218.052 87.826 215.476C87.9056 214.972 87.9719 214.467 88.0516 213.962C88.3037 212.396 88.5426 210.816 88.8346 209.249C89.392 206.168 90.029 203.114 90.7456 200.06C98.3337 167.222 116.479 137.78 142.397 116.25C160.579 101.113 182.331 90.2915 204.666 82.816C230.147 74.3313 260.605 72.3131 281.998 54.5472C294.924 43.8053 295.574 26.9954 282.502 16.1074C268.554 4.50248 248.422 0.6917 230.771 0.0676352C208.21 -0.729043 184.972 5.6311 163.751 12.8809C141.559 20.2921 120.467 30.6626 101.044 43.7123C62.2111 70.0927 32.5308 107.894 16.108 151.888C7.05699 176.094 2.25278 201.826 0.607147 227.559C-0.244479 241.463 -0.20015 255.407 0.73986 269.305C1.78829 285.039 5.76967 300.96 4.72124 316.628C2.27933 354.058 2.06699 400.279 40.2617 419.851C57.2091 428.535 76.3994 432.611 94.7934 436.953C116.027 441.985 138.058 444.003 159.823 445.623C213.757 449.491 267.87 450.24 321.891 447.867C332.23 447.456 342.555 446.898 352.867 446.088C365.567 445.105 365.673 425.175 352.867 426.171L352.853 426.224Z" fill="#231F20"/>
<path d="M53.2058 585.869C52.0403 585.749 50.9108 585.397 49.8842 584.833C48.8576 584.27 47.9547 583.507 47.229 582.59C46.4561 581.683 45.8836 580.623 45.5486 579.481C45.2136 578.338 45.1237 577.138 45.2848 575.959L58.5345 460.027C58.6448 458.842 59.0029 457.692 59.5859 456.653C60.1688 455.614 60.9635 454.709 61.9189 453.995C63.7905 452.532 66.1643 451.862 68.527 452.131C70.8897 452.4 73.0514 453.585 74.5445 455.431C75.2891 456.353 75.8371 457.416 76.1549 458.556C76.4728 459.696 76.5537 460.889 76.3927 462.062L70.512 513.433L133.832 463.163C135.049 462.132 136.438 461.321 137.937 460.769C139.129 460.387 140.389 460.264 141.633 460.41C142.807 460.437 143.957 460.75 144.982 461.322C146.007 461.893 146.876 462.706 147.514 463.69C148.044 464.627 148.377 465.663 148.492 466.733C148.608 467.803 148.504 468.885 148.186 469.914C147.533 472.302 146.138 474.422 144.201 475.97L95.4032 514.869L133.136 580.555C134.27 582.5 134.622 584.801 134.12 586.994C133.716 589.072 132.646 590.962 131.072 592.38C130.291 593.061 129.372 593.565 128.378 593.858C127.383 594.151 126.337 594.227 125.311 594.08C123.853 593.972 122.449 593.49 121.233 592.68C120.017 591.871 119.033 590.761 118.374 589.46L81.7214 525.905L67.9677 536.844L63.167 578.113C63.0516 579.289 62.7003 580.429 62.1342 581.466C61.5681 582.503 60.7986 583.416 59.8716 584.151C58.9446 584.886 57.8789 585.427 56.7379 585.743C55.5969 586.058 54.4039 586.142 53.2298 585.989L53.2058 585.869Z" fill="black"/>
<path d="M188.094 598.851C180.511 598.535 173.175 595.943 166.966 591.384C160.854 586.861 155.993 580.733 152.874 573.619C149.532 565.942 148.084 557.513 148.662 549.101C148.991 540.587 151.49 532.32 155.902 525.153C160.245 518.21 166.261 512.582 173.345 508.836C180.43 505.09 188.332 503.356 196.261 503.809C204.189 504.262 211.864 506.886 218.515 511.417C225.165 515.948 230.558 522.227 234.15 529.624C237.793 537.251 239.412 545.758 238.84 554.261L232.466 553.881C232.122 562.278 229.774 570.453 225.636 577.662C221.774 584.395 216.276 589.942 209.699 593.738C203.112 597.56 195.615 599.334 188.094 598.851ZM192.169 583.655C197.409 584.034 202.646 582.872 207.286 580.302C211.784 577.771 215.55 574.026 218.191 569.457C220.935 564.512 222.52 558.958 222.817 553.25C223.113 547.542 222.114 541.842 219.899 536.615C217.751 531.772 214.403 527.618 210.2 524.582C205.831 521.585 200.781 519.851 195.563 519.554C190.344 519.258 185.144 520.41 180.49 522.893C175.929 525.403 172.099 529.149 169.402 533.738C166.537 538.664 164.915 544.269 164.69 550.028C164.32 555.715 165.355 561.406 167.695 566.556C169.897 571.426 173.309 575.59 177.576 578.613C181.895 581.682 186.95 583.428 192.169 583.655ZM228.14 600.611C227.033 600.586 225.943 600.324 224.936 599.842C223.93 599.36 223.029 598.667 222.289 597.807C221.548 596.947 220.985 595.937 220.632 594.841C220.28 593.744 220.147 592.584 220.24 591.431L221.606 565.272L225.681 547.317L238.931 554.261L236.951 592.311C236.917 593.466 236.66 594.601 236.193 595.648C235.726 596.695 235.061 597.632 234.236 598.401C233.412 599.171 232.447 599.757 231.399 600.125C230.351 600.493 229.242 600.634 228.14 600.54V600.611Z" fill="black"/>
<path d="M291.208 600.609C286.274 600.678 281.445 599.211 277.413 596.42C273.332 593.501 270.113 589.572 268.086 585.035C265.789 579.81 264.667 574.162 264.797 568.474L265.092 473.849C265.053 472.702 265.25 471.558 265.672 470.487C266.094 469.416 266.731 468.439 267.546 467.615C268.787 466.363 270.383 465.509 272.127 465.162C273.871 464.815 275.681 464.993 277.32 465.672C278.959 466.351 280.351 467.499 281.314 468.967C282.277 470.435 282.765 472.153 282.715 473.897L282.372 568.522C282.212 572.204 283.059 575.861 284.826 579.113C285.396 580.311 286.289 581.333 287.41 582.068C288.531 582.802 289.836 583.221 291.183 583.278H295.601C296.68 583.241 297.754 583.438 298.746 583.854C299.739 584.27 300.626 584.895 301.345 585.685C302.84 587.433 303.618 589.664 303.529 591.943C303.529 593.175 303.221 594.388 302.63 595.475C302.039 596.563 301.185 597.491 300.142 598.178C297.6 599.888 294.557 600.734 291.478 600.585L291.208 600.609Z" fill="black"/>
<path d="M331.128 600.568C329.988 600.686 328.837 600.561 327.746 600.201C326.655 599.842 325.647 599.255 324.785 598.478C323.91 597.709 323.201 596.761 322.701 595.694C322.202 594.627 321.924 593.465 321.884 592.281L316.508 514.634C316.37 513.441 316.477 512.231 316.822 511.084C317.167 509.937 317.743 508.877 318.512 507.975C319.28 507.107 320.206 506.406 321.238 505.909C322.27 505.413 323.387 505.132 324.525 505.083C325.673 504.928 326.839 505.026 327.947 505.369C329.056 505.712 330.081 506.292 330.956 507.073C331.832 507.853 332.537 508.815 333.026 509.896C333.514 510.978 333.776 512.153 333.793 513.346L339.169 591.115C339.284 592.282 339.172 593.461 338.84 594.583C338.508 595.706 337.962 596.749 337.235 597.652C336.469 598.547 335.53 599.269 334.479 599.771C333.427 600.273 332.286 600.544 331.128 600.568ZM387.722 596.388C386.581 596.512 385.427 596.393 384.333 596.038C383.238 595.684 382.226 595.101 381.359 594.326C380.492 593.551 379.789 592.601 379.294 591.534C378.798 590.467 378.521 589.307 378.478 588.125L374.988 538.159C374.493 530.868 372.347 525.521 368.622 522.24C366.666 520.576 364.406 519.336 361.975 518.592C359.544 517.849 356.992 517.618 354.473 517.914C351.748 518.025 349.077 518.733 346.637 519.99C344.198 521.247 342.046 523.025 340.325 525.205C336.705 529.841 335.01 535.764 335.608 541.683L324.95 542.46C324.312 535.543 325.349 528.57 327.968 522.167C330.351 516.376 334.244 511.379 339.216 507.732C344.356 504.024 350.401 501.877 356.666 501.534C362.631 500.978 368.634 502.051 374.069 504.645C379.306 507.258 383.66 511.432 386.567 516.626C389.92 522.821 391.826 529.736 392.132 536.822L395.716 586.764C395.835 587.932 395.724 589.112 395.392 590.235C395.06 591.358 394.513 592.401 393.782 593.302C393.05 594.252 392.128 595.029 391.078 595.578C390.028 596.128 388.875 596.437 387.699 596.485L387.722 596.388ZM444.128 592.257C442.987 592.373 441.834 592.249 440.741 591.892C439.648 591.535 438.637 590.952 437.77 590.179C436.903 589.405 436.198 588.458 435.697 587.395C435.197 586.332 434.912 585.174 434.86 583.994L431.417 534.076C430.899 526.785 428.776 521.438 425.027 518.133C420.85 514.829 415.604 513.301 410.367 513.861C405.13 514.422 400.3 517.029 396.871 521.147C393.327 525.817 391.693 531.73 392.32 537.624L378.172 538.645C377.536 531.687 378.691 524.679 381.52 518.328C384.219 512.361 388.504 507.305 393.877 503.746C399.649 499.972 406.268 497.796 413.095 497.427C419.058 496.863 425.061 497.928 430.498 500.514C435.739 503.12 440.095 507.296 442.996 512.495C446.37 518.68 448.277 525.601 448.561 532.691L452.027 582.609C452.142 583.78 452.031 584.963 451.699 586.089C451.367 587.216 450.821 588.263 450.094 589.17C449.356 590.083 448.443 590.828 447.412 591.36C446.381 591.891 445.255 592.196 444.104 592.257H444.128Z" fill="black"/>
</svg>
